<svg width="20" height="20" viewBox="0 0 20 20" fill="none" xmlns="http://www.w3.org/2000/svg">
<path d="M17.9683 3.27602C17.9557 3.21697 17.9276 3.16236 17.8868 3.11787C17.846 3.07338 17.794 3.04063 17.7363 3.02302C17.526 2.98109 17.3084 2.99664 17.1063 3.06802C17.1063 3.06802 3.08725 8.10602 2.28625 8.66402C2.11425 8.78502 2.05625 8.85402 2.02725 8.93602C1.88925 9.33602 2.32025 9.50902 2.32025 9.50902L5.93325 10.686C5.99426 10.697 6.05701 10.6932 6.11625 10.675C6.93825 10.156 14.3863 5.45302 14.8163 5.29502C14.8843 5.27502 14.9343 5.29502 14.9163 5.34402C14.7443 5.94402 8.31025 11.663 8.27525 11.698C8.25818 11.7123 8.2448 11.7305 8.23627 11.751C8.22774 11.7716 8.2243 11.7939 8.22625 11.816L7.88925 15.344C7.88925 15.344 7.74725 16.444 8.84525 15.344C9.62425 14.565 10.3723 13.919 10.7453 13.606C11.9873 14.464 13.3243 15.412 13.9013 15.906C13.9979 16.0001 14.1125 16.0737 14.2383 16.1223C14.3641 16.171 14.4985 16.1936 14.6333 16.189C14.7992 16.1685 14.955 16.098 15.0801 15.987C15.2051 15.8759 15.2934 15.7294 15.3333 15.567C15.3333 15.567 17.8943 5.29202 17.9793 3.90902C17.9873 3.77402 18.0003 3.69202 18.0003 3.59202C18.0039 3.48572 17.9931 3.37942 17.9683 3.27602Z" fill="#6366F1" fill-opacity="0.88"/>
</svg>
