<svg width="1440" height="721" viewBox="0 0 1440 721" fill="none" xmlns="http://www.w3.org/2000/svg">
<g style="mix-blend-mode:overlay">
<path d="M771 432.998C766.786 299.464 679.545 187.508 517.898 108.999C373.096 38.6686 178.932 3.05176e-05 -29.1748 0C-30.4439 0 -31.6898 -0.000457764 -32.959 0.00292969C-111.287 0.179535 -187.597 5.82132 -260 16.5439V20.0293C-187.627 9.22684 -111.307 3.52527 -32.9326 3.34863C-31.687 3.34692 -30.4174 3.3457 -29.1748 3.3457C177.469 3.34573 370.181 41.7122 513.886 111.508C674.186 189.367 760.714 300.451 764.922 432.998H771ZM750.753 432.998C746.539 302.915 661.497 193.858 504.009 117.375C362.875 48.8327 173.643 11.1485 -29.1777 11.1484C-30.4351 11.1484 -31.6782 11.149 -32.9355 11.1523C-111.381 11.3324 -187.706 17.1916 -260 28.2148V31.6992C-187.741 20.5945 -111.404 14.6781 -32.9121 14.498C-31.6754 14.4963 -30.4145 14.4941 -29.1777 14.4941C172.177 14.4942 359.96 51.8781 499.992 119.884C656.138 195.717 740.47 303.905 744.675 432.998H750.753ZM730.502 432.998C726.291 306.368 643.45 200.208 490.116 125.749C352.648 58.9966 168.355 22.2979 -29.1777 22.2979C-30.4263 22.2979 -31.6665 22.2993 -32.918 22.3027C-111.481 22.4879 -187.833 28.5503 -260 39.8877V43.373C-187.871 31.9491 -111.502 25.8316 -32.8916 25.6465C-31.6637 25.6448 -30.4057 25.6436 -29.1777 25.6436C166.891 25.6436 349.736 62.0414 486.1 128.259C638.09 202.066 720.22 307.358 724.425 432.998H730.502ZM710.252 432.998C706.044 309.82 625.399 206.556 476.224 134.125C342.425 69.1591 163.069 33.4463 -29.1777 33.4463C-30.4174 33.4463 -31.6577 33.4488 -32.9004 33.4521C-111.578 33.6407 -187.974 39.891 -260 51.5596V55.0449C-188.018 43.2847 -111.599 36.9854 -32.874 36.7969C-31.6432 36.7952 -30.4057 36.7939 -29.1777 36.7939C161.588 36.794 339.518 72.209 472.207 136.635C620.04 208.416 699.975 310.81 704.174 432.998H710.252ZM690.005 432.998C685.8 313.271 607.351 212.904 462.33 142.5C332.206 79.3276 157.772 44.5977 -29.1777 44.5977C-30.4174 44.5977 -31.6431 44.5992 -32.8857 44.6025C-111.678 44.7945 -188.136 51.2167 -260 63.2334V66.7188C-188.186 54.6035 -111.698 48.1399 -32.8555 47.9463C-31.6336 47.9446 -30.3967 47.9424 -29.1777 47.9424C156.308 47.9424 329.291 82.3713 458.313 145.009C601.994 214.764 679.731 314.263 683.927 432.998H690.005ZM669.754 433C665.552 316.724 589.303 219.253 448.435 150.874C321.983 89.4932 152.474 55.75 -29.1777 55.75C-30.4174 55.75 -31.6285 55.7495 -32.8682 55.7529C-111.779 55.95 -188.319 62.524 -260 74.9092V78.3916C-188.377 65.9045 -111.801 59.2954 -32.8408 59.0967C-31.6189 59.0933 -30.3967 59.0918 -29.1777 59.0918C151.011 59.0918 319.067 92.5369 444.418 153.383C583.944 221.112 659.484 317.712 663.677 433H669.754ZM649.507 432.998C645.308 320.174 571.25 225.6 434.536 159.248C311.756 99.6571 147.18 66.8985 -29.1807 66.8984C-30.4173 66.8984 -31.6189 66.899 -32.8584 66.9023C-111.913 67.1061 -188.504 73.9156 -260 86.6982V90.2344C-188.557 77.338 -111.949 70.4509 -32.832 70.2471C143.352 69.8429 307.993 102.292 430.52 161.757C565.894 227.458 639.238 321.165 643.429 432.998H649.507ZM629.257 432.998C625.061 323.624 553.199 231.946 420.637 167.619C301.526 109.82 141.891 78.0469 -29.1777 78.0469C-30.4085 78.0469 -31.613 78.0493 -32.8438 78.0527C-112.064 78.2616 -188.698 85.3451 -260 98.5557V102.089C-188.76 88.7578 -112.099 81.6071 -32.8115 81.3965C-31.6013 81.3948 -30.3879 81.3926 -29.1777 81.3926C140.428 81.3926 298.617 112.865 416.627 170.129C547.843 233.806 618.994 324.615 623.179 432.998H629.257ZM609.009 432.998C604.815 327.074 535.148 238.293 406.741 175.991C291.296 119.982 136.603 89.1963 -29.1807 89.1963C-30.4026 89.1963 -31.6131 89.1978 -32.8379 89.2012C-112.22 89.4185 -188.925 96.7481 -260 110.412V113.946C-188.999 100.155 -112.255 92.7623 -32.8086 92.5449C132.801 92.0932 287.545 122.619 402.725 178.501C529.792 240.15 598.747 328.064 602.932 432.998H609.009ZM588.759 432.998C584.568 330.524 517.098 244.638 392.843 184.362C281.07 130.146 131.305 100.345 -29.1777 100.345C-30.4026 100.345 -31.6013 100.347 -32.8262 100.351C-112.373 100.575 -189.187 108.125 -260 122.271V125.805C-189.27 111.524 -112.408 103.919 -32.7939 103.695C-31.5926 103.692 -30.382 103.69 -29.1777 103.69C129.836 103.69 278.158 133.192 388.826 186.873C511.744 246.496 578.502 331.515 582.681 432.998H588.759ZM568.512 432.998C564.33 333.973 499.047 250.984 378.941 192.734C270.838 140.31 126.008 111.496 -29.1807 111.496C-30.4026 111.496 -31.5984 111.498 -32.8232 111.501C-112.567 111.732 -189.458 119.593 -260 134.264V137.859C-189.541 123.037 -112.623 115.079 -32.791 114.847C-31.5867 114.843 -30.3791 114.841 -29.1807 114.841C124.541 114.841 267.925 143.355 374.925 195.244C493.691 252.843 558.261 334.964 562.434 432.998H568.512ZM548.255 432.998C544.076 337.422 480.993 257.326 365.036 201.104C260.604 150.47 120.716 122.645 -29.1836 122.645C-30.3967 122.645 -31.5954 122.648 -32.8174 122.651C-112.785 122.891 -189.755 131.099 -260 146.339V149.934C-189.853 134.531 -112.838 126.237 -32.7793 125.997C-31.5838 125.994 -30.3762 125.992 -29.1777 125.992C119.253 125.992 257.695 153.517 361.025 203.616C475.643 259.187 538.014 338.415 542.178 432.998H548.255ZM528.011 432.998C523.838 340.871 462.946 263.671 351.132 209.476C250.369 160.634 115.416 133.795 -29.1836 133.795C-30.3996 133.795 -31.5954 133.798 -32.8174 133.802C-113.009 134.05 -190.106 142.564 -260 158.414V162.008C-190.221 145.985 -113.062 137.395 -32.7793 137.146C-31.5808 137.142 -30.3762 137.141 -29.1807 137.141C113.95 137.141 247.466 163.681 347.121 211.985C457.589 265.532 517.772 341.863 521.933 432.998H528.011ZM507.761 432.998C503.591 344.32 444.889 270.013 337.23 217.844C240.14 170.796 110.125 144.944 -29.1807 144.944C-30.3967 144.944 -31.5925 144.946 -32.8115 144.949C-113.268 145.209 -190.489 154.103 -260 170.62V174.284C-190.606 157.572 -113.348 148.555 -32.7764 148.297C106.329 147.84 236.4 173.438 333.217 220.355C439.539 271.875 497.525 345.312 501.683 432.998H507.761ZM487.51 432.998C483.346 347.767 426.838 276.358 323.322 226.211C229.901 180.955 104.833 156.093 -29.1807 156.093C-30.3938 156.093 -31.5984 156.096 -32.8115 156.1C-113.568 156.37 -190.913 165.698 -260 182.947V186.612C-191.057 169.153 -113.648 159.715 -32.7793 159.445C-31.5867 159.44 -30.3762 159.438 -29.1836 159.438C103.361 159.439 226.991 184.004 319.309 228.725C421.485 278.22 477.284 348.761 481.433 432.998H487.51ZM467.26 432.998C463.102 351.215 408.782 282.699 309.415 234.578C219.659 191.117 99.5326 167.242 -29.1836 167.242C-30.3967 167.242 -31.5984 167.246 -32.8174 167.249C-113.878 167.533 -191.419 177.252 -260 195.292V199.04C-191.569 180.762 -113.984 170.879 -32.7764 170.596C95.7574 170.147 215.928 193.763 305.404 237.094C403.431 284.563 457.038 352.21 461.182 432.998H467.26ZM447.007 432.998C442.858 354.664 390.731 289.043 295.508 242.951C209.427 201.282 94.2293 178.395 -29.1836 178.395C-30.3996 178.395 -31.5954 178.396 -32.8174 178.401C-114.272 178.697 -191.964 188.981 -260 207.915V211.661C-192.149 192.469 -114.381 182.042 -32.7764 181.746C90.3893 181.354 205.69 203.926 291.5 245.463C385.378 290.906 436.791 355.657 440.929 432.998H447.007ZM426.759 432.998C422.616 358.11 372.677 295.384 281.6 251.316C199.188 211.442 88.9377 189.543 -29.1807 189.543C-30.3997 189.543 -31.6043 189.545 -32.8232 189.55C-114.681 189.862 -192.621 200.651 -260 220.553V224.396C-192.827 204.197 -114.823 193.208 -32.7822 192.896C85.0918 192.5 195.451 214.088 277.589 253.83C367.324 297.249 416.553 359.105 420.682 432.998H426.759ZM406.506 432.998C402.369 361.557 354.618 301.725 267.692 259.684C188.95 221.604 83.6404 200.693 -29.1807 200.693C-30.3996 200.693 -31.6042 200.695 -32.8262 200.7C-115.2 201.03 -193.36 212.507 -260 233.516V237.356C-193.616 216.022 -115.344 204.374 -32.7822 204.046C-31.6456 204.041 -30.4735 204.039 -29.3369 204.039C173.564 204.039 391.326 275.536 400.407 432.998H406.506ZM386.256 432.998C382.127 365.003 336.565 308.064 253.779 268.051C178.709 231.765 78.34 211.843 -29.1807 211.843C-30.4026 211.843 -31.6131 211.846 -32.8379 211.852C-115.777 212.2 -194.246 224.384 -260 246.628V250.581C-194.543 227.961 -115.965 215.544 -32.791 215.196C-31.6456 215.191 -30.4882 215.188 -29.3428 215.188C163.817 215.189 371.09 283.197 380.157 432.998H386.256ZM366.002 432.998C361.885 368.448 318.508 314.403 239.865 276.414C168.467 241.925 73.0366 222.991 -29.1807 222.991C-30.4055 222.991 -31.6189 222.993 -32.8438 223C-116.439 223.37 -195.309 236.341 -260 259.982V264.06C-195.66 239.977 -116.681 226.716 -32.7998 226.346C-31.6544 226.341 -30.4882 226.337 -29.3428 226.337C154.073 226.337 350.855 290.856 359.904 432.998H366.002ZM345.752 432.998C341.647 371.896 300.454 320.744 225.949 284.78C158.225 252.086 67.7393 234.143 -29.1807 234.143C-30.4084 234.143 -31.6306 234.144 -32.8584 234.15C-117.278 234.544 -196.575 248.509 -260 273.782V277.916C-197.02 252.144 -117.547 237.892 -32.8115 237.494C-31.6573 237.489 -30.494 237.486 -29.3428 237.486C144.323 237.486 330.622 298.515 339.653 432.998H345.752ZM325.496 432.998C321.403 375.34 282.397 327.084 212.035 293.144C147.98 262.243 62.4387 245.289 -29.1807 245.289C-30.4115 245.289 -31.6432 245.293 -32.874 245.3C-118.292 245.723 -198.148 260.832 -260 288.007V292.295C-198.704 264.525 -118.624 249.07 -32.8203 248.646C-31.669 248.64 -30.494 248.637 -29.3457 248.637C134.583 248.637 310.395 306.171 319.397 432.998H325.496Z" fill="url(#paint0_linear_1_178)" fill-opacity="0.7"/>
</g>
<g style="mix-blend-mode:overlay">
<path d="M1890.1 188.856C1842.21 419.873 1718.24 597.769 1530.73 703.568C1362.75 798.346 1155.71 828.848 947.363 789.592C946.092 789.353 944.846 789.118 943.576 788.873C865.215 773.791 790.66 749.603 721.679 717.331L722.819 711.281C791.744 743.686 866.288 767.979 944.696 783.07C945.943 783.308 947.213 783.55 948.457 783.784C1155.34 822.764 1360.83 792.513 1527.53 698.457C1713.49 593.534 1836.45 417.015 1884.02 187.71L1890.1 188.856ZM1869.83 185.037C1823.06 410.063 1702.25 583.342 1519.56 686.408C1355.84 778.773 1154.07 808.497 951.007 770.238C949.748 770.001 948.504 769.765 947.246 769.522C868.768 754.412 794.269 729.844 725.496 697.071L726.636 691.022C795.347 723.93 869.839 748.601 948.364 763.72C949.602 763.956 950.863 764.197 952.101 764.43C1153.69 802.412 1353.92 772.938 1516.36 681.296C1697.49 579.106 1817.31 407.2 1863.75 183.89L1869.83 185.037ZM1849.56 181.217C1803.92 400.25 1686.26 568.915 1508.39 669.25C1348.93 759.2 1152.42 788.144 954.653 750.883C953.403 750.648 952.163 750.411 950.911 750.169C872.317 735.028 797.858 710.101 729.314 676.806L730.454 670.757C798.931 704.194 873.389 729.219 952.031 744.369C953.26 744.603 954.518 744.843 955.748 745.075C1152.05 782.06 1347.01 753.365 1505.19 664.135C1681.5 564.679 1798.17 397.386 1843.47 180.071L1849.56 181.217ZM1829.28 177.397C1784.78 390.437 1670.26 554.49 1497.22 652.089C1342.02 739.63 1150.77 767.793 958.3 731.529C957.059 731.295 955.818 731.058 954.575 730.818C875.867 715.649 801.426 690.387 733.132 656.544L734.272 650.494C802.492 684.488 876.94 709.838 955.696 725.016C956.928 725.251 958.165 725.487 959.395 725.718C1150.38 761.703 1340.11 733.787 1494.02 646.975C1665.51 550.251 1779.03 387.574 1823.2 176.251L1829.28 177.397ZM1809.01 173.578C1765.64 380.628 1654.27 540.065 1486.05 634.929C1335.11 720.049 1149.12 747.437 961.947 712.172C960.706 711.938 959.48 711.704 958.238 711.464C879.415 696.268 804.968 670.695 736.95 636.278L738.09 630.229C806.026 664.808 880.488 690.456 959.36 705.664C960.583 705.898 961.821 706.134 963.041 706.364C1148.74 741.352 1333.19 714.216 1482.85 629.817C1649.52 535.827 1759.89 377.762 1802.93 172.431L1809.01 173.578ZM1788.74 169.755C1746.5 370.815 1638.28 525.639 1474.88 617.771C1328.2 700.474 1147.46 727.078 965.595 692.812C964.354 692.578 963.142 692.349 961.902 692.109C882.963 676.882 808.484 651.033 740.769 616.011L741.908 609.964C809.531 645.152 884.034 671.071 963.023 686.31C964.245 686.547 965.467 686.78 966.688 687.01C1147.09 720.999 1326.28 694.641 1471.68 612.659C1633.52 521.402 1740.75 367.955 1782.65 168.608L1788.74 169.755ZM1768.47 165.939C1727.36 361.006 1622.28 511.216 1463.7 600.612C1321.29 680.9 1145.81 706.724 969.238 673.457C968 673.223 966.797 672.997 965.557 672.757C886.476 657.491 812.024 631.222 744.625 595.545L745.782 589.407C813.09 625.271 887.536 651.676 966.678 666.954C1142.94 700.89 1318.38 675.617 1460.5 595.5C1617.53 506.98 1721.61 358.142 1762.38 164.792L1768.47 165.939ZM1748.19 162.119C1708.22 351.199 1606.28 496.794 1452.53 583.459C1314.37 661.329 1144.16 686.373 972.888 654.103C971.656 653.871 970.451 653.64 969.22 653.402C889.976 638.096 815.568 611.345 748.503 574.962L749.659 568.826C816.622 605.407 891.034 632.282 970.345 647.604C971.556 647.835 972.77 648.067 973.982 648.295C1143.79 680.289 1312.45 655.494 1449.33 578.346C1601.53 492.556 1702.47 348.333 1742.11 160.972L1748.19 162.119ZM1727.92 158.299C1689.08 341.39 1590.29 482.372 1441.35 566.304C1307.45 641.758 1142.51 666.02 976.532 634.748C975.308 634.518 974.097 634.287 972.872 634.05C893.468 618.698 819.071 591.505 752.382 554.377L753.538 548.242C820.111 585.577 894.526 612.886 973.995 628.25C1139.65 660.274 1304.56 636.472 1438.15 561.189C1585.53 478.136 1683.32 338.526 1721.84 157.153L1727.92 158.299ZM1707.65 154.479C1669.93 331.583 1574.29 467.952 1430.18 549.15C1300.54 622.184 1140.85 645.667 980.181 615.395C978.955 615.164 977.755 614.935 976.53 614.698C896.964 599.304 822.529 571.707 756.26 533.791L757.416 527.656C823.559 565.789 898.023 593.489 977.657 608.896C978.859 609.129 980.07 609.36 981.275 609.587C1140.48 639.582 1298.62 616.346 1426.98 544.033C1569.54 463.715 1664.19 328.717 1701.56 153.333L1707.65 154.479ZM1687.37 150.66C1650.8 321.778 1558.3 453.531 1419 531.995C1293.62 602.61 1139.2 625.31 983.825 596.037C982.602 595.806 981.405 595.578 980.18 595.341C900.418 579.898 826.009 551.746 760.183 512.971L761.359 506.73C827.053 545.752 901.457 574.076 981.307 589.539C982.512 589.772 983.72 590.003 984.92 590.229C1138.82 619.226 1291.7 596.774 1415.8 526.879C1553.54 449.292 1645.05 318.911 1681.29 149.514L1687.37 150.66ZM1667.09 146.839C1631.65 311.969 1542.3 439.114 1407.81 514.84C1286.7 583.042 1137.54 604.958 987.469 576.682C986.254 576.453 985.055 576.221 983.833 575.984C903.85 560.484 829.474 531.718 764.132 492.011L765.308 485.769C830.5 525.741 904.891 554.667 984.966 570.185C986.161 570.416 987.37 570.646 988.57 570.873C1137.17 598.872 1284.78 577.203 1404.62 509.723C1537.55 434.873 1625.91 309.101 1661.01 145.693L1667.09 146.839ZM1646.83 143.02C1612.52 302.164 1526.3 424.695 1396.63 497.686C1279.78 563.466 1135.89 584.601 991.116 557.325C989.899 557.095 988.703 556.864 987.48 556.628C907.276 541.07 832.874 511.746 768.082 471.047L769.257 464.809C833.878 505.787 908.317 535.252 988.612 550.83C989.811 551.062 991.016 551.292 992.213 551.517C1135.51 578.516 1277.86 557.63 1393.44 492.573C1521.55 420.454 1606.77 299.298 1640.74 141.874L1646.83 143.02ZM1626.55 139.2C1593.37 292.358 1510.3 410.279 1385.45 480.536C1272.86 543.896 1134.23 564.249 994.766 537.971C993.548 537.742 992.351 537.514 991.132 537.278C910.666 521.65 836.264 491.644 772.074 449.859L773.273 443.496C837.282 485.598 911.681 515.827 992.262 531.474C1131.38 558.507 1269.98 538.602 1382.25 475.418C1505.55 406.038 1587.62 289.491 1620.47 138.054L1626.55 139.2ZM1606.28 135.381C1574.23 282.554 1494.3 395.859 1374.26 463.387C1265.93 524.328 1132.58 543.896 998.412 518.617C997.198 518.388 995.993 518.155 994.779 517.92C914.016 502.218 839.633 471.434 776.106 428.458L777.305 422.097C840.618 465.411 915.031 496.395 995.906 512.118C997.098 512.352 998.309 512.584 999.503 512.809C1132.2 537.811 1264.01 518.487 1371.07 458.266C1489.55 391.618 1568.49 279.686 1600.19 134.234L1606.28 135.381ZM1586 131.561C1555.09 272.751 1478.3 381.445 1363.08 446.238C1259 504.755 1130.92 523.542 1002.06 499.262C1000.84 499.033 999.639 498.801 998.42 498.565C917.358 482.782 842.904 451.283 780.144 407.029L781.37 400.522C843.902 445.161 918.346 476.951 999.556 492.762C1128.09 517.786 1256.13 499.458 1359.88 441.116C1473.55 377.202 1549.35 269.879 1579.92 130.414L1586 131.561ZM1565.73 127.74C1535.95 262.944 1462.3 367.029 1351.89 429.081C1252.08 485.181 1129.26 503.182 1005.7 479.902C1004.49 479.672 1003.29 479.444 1002.07 479.205C920.614 463.327 846.196 430.818 784.273 385.115L785.498 378.613C847.151 424.728 921.599 457.498 1003.2 473.405C1126.38 497.319 1249.2 479.885 1348.7 423.964C1457.55 362.785 1530.2 260.075 1559.64 126.594L1565.73 127.74ZM1545.46 123.921C1516.81 253.144 1446.3 352.615 1340.7 411.935C1245.15 465.61 1127.61 482.83 1009.35 460.548C1008.13 460.319 1006.93 460.089 1005.71 459.85C923.857 443.866 849.355 410.435 788.406 363.176L789.663 356.505C850.309 404.24 924.809 438.032 1006.84 454.05C1124.73 476.972 1242.28 460.313 1337.51 406.816C1441.55 348.369 1511.07 250.273 1539.37 122.774L1545.46 123.921ZM1525.18 120.1C1497.67 243.34 1430.29 338.2 1329.52 394.786C1238.23 446.037 1125.95 462.473 1013 441.191C1011.78 440.961 1010.57 440.731 1009.35 440.492C926.99 424.381 852.493 389.714 792.646 340.673L793.903 334.005C853.386 383.564 927.94 418.549 1010.49 434.692C1011.63 434.915 1012.8 435.14 1013.94 435.354C1217.08 473.628 1458.48 390.587 1519.07 118.95L1525.18 120.1ZM1504.91 116.28C1478.53 233.541 1414.29 323.79 1318.32 377.636C1231.3 426.467 1124.29 442.119 1016.65 421.837C1015.42 421.607 1014.21 421.372 1012.99 421.132C930.066 404.882 855.49 368.929 796.935 317.911L798.228 311.048C856.363 362.663 930.972 399.04 1014.13 415.334C1015.27 415.559 1016.43 415.782 1017.58 415.999C1210.97 452.435 1440.73 373.471 1498.8 115.13L1504.91 116.28ZM1484.63 112.46C1459.39 223.741 1398.29 309.379 1307.13 360.493C1224.36 406.897 1122.63 421.764 1020.29 402.482C1019.07 402.251 1017.85 402.02 1016.63 401.777C933.057 385.365 858.337 347.971 801.303 294.727L802.637 287.649C859.176 341.592 933.909 379.512 1017.77 395.977C1018.91 396.202 1020.08 396.429 1021.23 396.645C1204.86 431.243 1422.97 356.358 1478.52 111.31L1484.63 112.46ZM1464.35 108.64C1440.26 213.938 1382.29 294.968 1295.93 343.345C1217.43 387.327 1120.97 401.408 1023.94 383.126C1022.71 382.894 1021.49 382.661 1020.26 382.417C935.871 365.809 861.049 326.608 805.817 270.771L807.169 263.595C861.793 320.216 936.697 359.947 1021.4 376.621C1022.56 376.848 1023.72 377.073 1024.87 377.29C1198.74 410.049 1405.22 339.246 1458.25 107.49L1464.35 108.64ZM1444.07 104.819C1421.12 204.141 1366.28 280.554 1284.74 326.202C1210.5 367.762 1119.31 381.056 1027.59 363.774C1026.35 363.542 1025.12 363.304 1023.89 363.06C938.513 346.213 863.506 304.92 810.469 246.077L811.872 238.634C864.156 298.404 939.275 340.339 1025.04 357.262C1026.19 357.488 1027.37 357.716 1028.52 357.933C1192.64 388.855 1387.47 322.14 1437.97 103.669L1444.07 104.819Z" fill="url(#paint1_linear_1_178)" fill-opacity="0.8"/>
</g>
<defs>
<linearGradient id="paint0_linear_1_178" x1="365.253" y1="281.856" x2="186.278" y2="1.11947" gradientUnits="userSpaceOnUse">
<stop stop-color="#181A94"/>
<stop offset="0.43" stop-color="white" stop-opacity="0.57"/>
<stop offset="1" stop-color="#646590" stop-opacity="0"/>
</linearGradient>
<linearGradient id="paint1_linear_1_178" x1="1434.44" y1="374.699" x2="1294.2" y2="724.785" gradientUnits="userSpaceOnUse">
<stop stop-color="#315994"/>
<stop offset="0.43" stop-color="white" stop-opacity="0.57"/>
<stop offset="1" stop-color="#111361" stop-opacity="0"/>
</linearGradient>
</defs>
</svg>
