<svg width="1440" height="798" viewBox="0 0 1440 798" fill="none" xmlns="http://www.w3.org/2000/svg">
<g clip-path="url(#clip0_1_177)">
<path d="M0 72C0 32.2355 32.2355 0 72 0H1368C1407.76 0 1440 32.2355 1440 72V798H0V72Z" fill="url(#paint0_linear_1_177)"/>
<g style="mix-blend-mode:overlay">
<path d="M771 509.998C766.786 376.464 679.545 264.508 517.898 185.999C373.096 115.669 178.932 77 -29.1748 77C-30.4439 77 -31.6898 76.9995 -32.959 77.0029C-111.287 77.1795 -187.597 82.8213 -260 93.5439V97.0293C-187.627 86.2268 -111.307 80.5253 -32.9326 80.3486C-31.687 80.3469 -30.4174 80.3457 -29.1748 80.3457C177.469 80.3457 370.181 118.712 513.886 188.508C674.186 266.367 760.714 377.451 764.922 509.998H771ZM750.753 509.998C746.539 379.915 661.497 270.858 504.009 194.375C362.875 125.833 173.643 88.1485 -29.1777 88.1484C-30.4351 88.1484 -31.6782 88.149 -32.9355 88.1523C-111.381 88.3324 -187.706 94.1916 -260 105.215V108.699C-187.741 97.5945 -111.404 91.6781 -32.9121 91.498C-31.6754 91.4963 -30.4145 91.4941 -29.1777 91.4941C172.177 91.4942 359.96 128.878 499.992 196.884C656.138 272.717 740.47 380.905 744.675 509.998H750.753ZM730.502 509.998C726.291 383.368 643.45 277.208 490.116 202.749C352.648 135.997 168.355 99.2979 -29.1777 99.2979C-30.4263 99.2979 -31.6665 99.2993 -32.918 99.3027C-111.481 99.4879 -187.833 105.55 -260 116.888V120.373C-187.871 108.949 -111.502 102.832 -32.8916 102.646C-31.6637 102.645 -30.4057 102.644 -29.1777 102.644C166.891 102.644 349.736 139.041 486.1 205.259C638.09 279.066 720.22 384.358 724.425 509.998H730.502ZM710.252 509.998C706.044 386.82 625.399 283.556 476.224 211.125C342.425 146.159 163.069 110.446 -29.1777 110.446C-30.4174 110.446 -31.6577 110.449 -32.9004 110.452C-111.578 110.641 -187.974 116.891 -260 128.56V132.045C-188.018 120.285 -111.599 113.985 -32.874 113.797C-31.6432 113.795 -30.4057 113.794 -29.1777 113.794C161.588 113.794 339.518 149.209 472.207 213.635C620.04 285.416 699.975 387.81 704.174 509.998H710.252ZM690.005 509.998C685.8 390.271 607.351 289.904 462.33 219.5C332.206 156.328 157.772 121.598 -29.1777 121.598C-30.4174 121.598 -31.6431 121.599 -32.8857 121.603C-111.678 121.794 -188.136 128.217 -260 140.233V143.719C-188.186 131.604 -111.698 125.14 -32.8555 124.946C-31.6336 124.945 -30.3967 124.942 -29.1777 124.942C156.308 124.942 329.291 159.371 458.313 222.009C601.994 291.764 679.731 391.263 683.927 509.998H690.005ZM669.754 510C665.552 393.724 589.303 296.253 448.435 227.874C321.983 166.493 152.474 132.75 -29.1777 132.75C-30.4174 132.75 -31.6285 132.75 -32.8682 132.753C-111.779 132.95 -188.319 139.524 -260 151.909V155.392C-188.377 142.905 -111.801 136.295 -32.8408 136.097C-31.6189 136.093 -30.3967 136.092 -29.1777 136.092C151.011 136.092 319.067 169.537 444.418 230.383C583.944 298.112 659.484 394.712 663.677 510H669.754ZM649.507 509.998C645.308 397.174 571.25 302.6 434.536 236.248C311.756 176.657 147.18 143.898 -29.1807 143.898C-30.4173 143.898 -31.6189 143.899 -32.8584 143.902C-111.913 144.106 -188.504 150.916 -260 163.698V167.234C-188.557 154.338 -111.949 147.451 -32.832 147.247C143.352 146.843 307.993 179.292 430.52 238.757C565.894 304.458 639.238 398.165 643.429 509.998H649.507ZM629.257 509.998C625.061 400.624 553.199 308.946 420.637 244.619C301.526 186.82 141.891 155.047 -29.1777 155.047C-30.4085 155.047 -31.613 155.049 -32.8438 155.053C-112.064 155.262 -188.698 162.345 -260 175.556V179.089C-188.76 165.758 -112.099 158.607 -32.8115 158.396C-31.6013 158.395 -30.3879 158.393 -29.1777 158.393C140.428 158.393 298.617 189.865 416.627 247.129C547.843 310.806 618.994 401.615 623.179 509.998H629.257ZM609.009 509.998C604.815 404.074 535.148 315.293 406.741 252.991C291.296 196.982 136.603 166.196 -29.1807 166.196C-30.4026 166.196 -31.6131 166.198 -32.8379 166.201C-112.22 166.419 -188.925 173.748 -260 187.412V190.946C-188.999 177.155 -112.255 169.762 -32.8086 169.545C132.801 169.093 287.545 199.619 402.725 255.501C529.792 317.15 598.747 405.064 602.932 509.998H609.009ZM588.759 509.998C584.568 407.524 517.098 321.638 392.843 261.362C281.07 207.146 131.305 177.345 -29.1777 177.345C-30.4026 177.345 -31.6013 177.347 -32.8262 177.351C-112.373 177.575 -189.187 185.125 -260 199.271V202.805C-189.27 188.524 -112.408 180.919 -32.7939 180.695C-31.5926 180.692 -30.382 180.69 -29.1777 180.69C129.836 180.69 278.158 210.192 388.826 263.873C511.744 323.496 578.502 408.515 582.681 509.998H588.759ZM568.512 509.998C564.33 410.973 499.047 327.984 378.941 269.734C270.838 217.31 126.008 188.496 -29.1807 188.496C-30.4026 188.496 -31.5984 188.498 -32.8232 188.501C-112.567 188.732 -189.458 196.593 -260 211.264V214.859C-189.541 200.037 -112.623 192.079 -32.791 191.847C-31.5867 191.843 -30.3791 191.841 -29.1807 191.841C124.541 191.841 267.925 220.355 374.925 272.244C493.691 329.843 558.261 411.964 562.434 509.998H568.512ZM548.255 509.998C544.076 414.422 480.993 334.326 365.036 278.104C260.604 227.47 120.716 199.645 -29.1836 199.645C-30.3967 199.645 -31.5954 199.648 -32.8174 199.651C-112.785 199.891 -189.755 208.099 -260 223.339V226.934C-189.853 211.531 -112.838 203.237 -32.7793 202.997C-31.5838 202.994 -30.3762 202.992 -29.1777 202.992C119.253 202.992 257.695 230.517 361.025 280.616C475.643 336.187 538.014 415.415 542.178 509.998H548.255ZM528.011 509.998C523.838 417.871 462.946 340.671 351.132 286.476C250.369 237.634 115.416 210.795 -29.1836 210.795C-30.3996 210.795 -31.5954 210.798 -32.8174 210.802C-113.009 211.05 -190.106 219.564 -260 235.414V239.008C-190.221 222.985 -113.062 214.395 -32.7793 214.146C-31.5808 214.142 -30.3762 214.141 -29.1807 214.141C113.95 214.141 247.466 240.681 347.121 288.985C457.589 342.532 517.772 418.863 521.933 509.998H528.011ZM507.761 509.998C503.591 421.32 444.889 347.013 337.23 294.844C240.14 247.796 110.125 221.944 -29.1807 221.944C-30.3967 221.944 -31.5925 221.946 -32.8115 221.949C-113.268 222.209 -190.489 231.103 -260 247.62V251.284C-190.606 234.572 -113.348 225.555 -32.7764 225.297C106.329 224.84 236.4 250.438 333.217 297.355C439.539 348.875 497.525 422.312 501.683 509.998H507.761ZM487.51 509.998C483.346 424.767 426.838 353.358 323.322 303.211C229.901 257.955 104.833 233.093 -29.1807 233.093C-30.3938 233.093 -31.5984 233.096 -32.8115 233.1C-113.568 233.37 -190.913 242.698 -260 259.947V263.612C-191.057 246.153 -113.648 236.715 -32.7793 236.445C-31.5867 236.44 -30.3762 236.438 -29.1836 236.438C103.361 236.439 226.991 261.004 319.309 305.725C421.485 355.22 477.284 425.761 481.433 509.998H487.51ZM467.26 509.998C463.102 428.215 408.782 359.699 309.415 311.578C219.659 268.117 99.5326 244.242 -29.1836 244.242C-30.3967 244.242 -31.5984 244.246 -32.8174 244.249C-113.878 244.533 -191.419 254.252 -260 272.292V276.04C-191.569 257.762 -113.984 247.879 -32.7764 247.596C95.7574 247.147 215.928 270.763 305.404 314.094C403.431 361.563 457.038 429.21 461.182 509.998H467.26ZM447.007 509.998C442.858 431.664 390.731 366.043 295.508 319.951C209.427 278.282 94.2293 255.395 -29.1836 255.395C-30.3996 255.395 -31.5954 255.396 -32.8174 255.401C-114.272 255.697 -191.964 265.981 -260 284.915V288.661C-192.149 269.469 -114.381 259.042 -32.7764 258.746C90.3893 258.354 205.69 280.926 291.5 322.463C385.378 367.906 436.791 432.657 440.929 509.998H447.007ZM426.759 509.998C422.616 435.11 372.677 372.384 281.6 328.316C199.188 288.442 88.9377 266.543 -29.1807 266.543C-30.3997 266.543 -31.6043 266.545 -32.8232 266.55C-114.681 266.862 -192.621 277.651 -260 297.553V301.396C-192.827 281.197 -114.823 270.208 -32.7822 269.896C85.0918 269.5 195.451 291.088 277.589 330.83C367.324 374.249 416.553 436.105 420.682 509.998H426.759ZM406.506 509.998C402.369 438.557 354.618 378.725 267.692 336.684C188.95 298.604 83.6404 277.693 -29.1807 277.693C-30.3996 277.693 -31.6042 277.695 -32.8262 277.7C-115.2 278.03 -193.36 289.507 -260 310.516V314.356C-193.616 293.022 -115.344 281.374 -32.7822 281.046C-31.6456 281.041 -30.4735 281.039 -29.3369 281.039C173.564 281.039 391.326 352.536 400.407 509.998H406.506ZM386.256 509.998C382.127 442.003 336.565 385.064 253.779 345.051C178.709 308.765 78.34 288.843 -29.1807 288.843C-30.4026 288.843 -31.6131 288.846 -32.8379 288.852C-115.777 289.2 -194.246 301.384 -260 323.628V327.581C-194.543 304.961 -115.965 292.544 -32.791 292.196C-31.6456 292.191 -30.4882 292.188 -29.3428 292.188C163.817 292.189 371.09 360.197 380.157 509.998H386.256ZM366.002 509.998C361.885 445.448 318.508 391.403 239.865 353.414C168.467 318.925 73.0366 299.991 -29.1807 299.991C-30.4055 299.991 -31.6189 299.993 -32.8438 300C-116.439 300.37 -195.309 313.341 -260 336.982V341.06C-195.66 316.977 -116.681 303.716 -32.7998 303.346C-31.6544 303.341 -30.4882 303.337 -29.3428 303.337C154.073 303.337 350.855 367.856 359.904 509.998H366.002ZM345.752 509.998C341.647 448.896 300.454 397.744 225.949 361.78C158.225 329.086 67.7393 311.143 -29.1807 311.143C-30.4084 311.143 -31.6306 311.144 -32.8584 311.15C-117.278 311.544 -196.575 325.509 -260 350.782V354.916C-197.02 329.144 -117.547 314.892 -32.8115 314.494C-31.6573 314.489 -30.494 314.486 -29.3428 314.486C144.323 314.486 330.622 375.515 339.653 509.998H345.752ZM325.496 509.998C321.403 452.34 282.397 404.084 212.035 370.144C147.98 339.243 62.4387 322.289 -29.1807 322.289C-30.4115 322.289 -31.6432 322.293 -32.874 322.3C-118.292 322.723 -198.148 337.832 -260 365.007V369.295C-198.704 341.525 -118.624 326.07 -32.8203 325.646C-31.669 325.64 -30.494 325.637 -29.3457 325.637C134.583 325.637 310.395 383.171 319.397 509.998H325.496Z" fill="url(#paint1_linear_1_177)" fill-opacity="0.7"/>
</g>
<g style="mix-blend-mode:overlay">
<path d="M1890.1 265.856C1842.21 496.873 1718.24 674.769 1530.73 780.568C1362.75 875.346 1155.71 905.848 947.363 866.592C946.092 866.353 944.846 866.118 943.576 865.873C865.215 850.791 790.66 826.603 721.679 794.331L722.819 788.281C791.744 820.686 866.288 844.979 944.696 860.07C945.943 860.308 947.213 860.55 948.457 860.784C1155.34 899.764 1360.83 869.513 1527.53 775.457C1713.49 670.534 1836.45 494.015 1884.02 264.71L1890.1 265.856ZM1869.83 262.037C1823.06 487.063 1702.25 660.342 1519.56 763.408C1355.84 855.773 1154.07 885.497 951.007 847.238C949.748 847.001 948.504 846.765 947.246 846.522C868.768 831.412 794.269 806.844 725.496 774.071L726.636 768.022C795.347 800.93 869.839 825.601 948.364 840.72C949.602 840.956 950.863 841.197 952.101 841.43C1153.69 879.412 1353.92 849.938 1516.36 758.296C1697.49 656.106 1817.31 484.2 1863.75 260.89L1869.83 262.037ZM1849.56 258.217C1803.92 477.25 1686.26 645.915 1508.39 746.25C1348.93 836.2 1152.42 865.144 954.653 827.883C953.403 827.648 952.163 827.411 950.911 827.169C872.317 812.028 797.858 787.101 729.314 753.806L730.454 747.757C798.931 781.194 873.389 806.219 952.031 821.369C953.26 821.603 954.518 821.843 955.748 822.075C1152.05 859.06 1347.01 830.365 1505.19 741.135C1681.5 641.679 1798.17 474.386 1843.47 257.071L1849.56 258.217ZM1829.28 254.397C1784.78 467.437 1670.26 631.49 1497.22 729.089C1342.02 816.63 1150.77 844.793 958.3 808.529C957.059 808.295 955.818 808.058 954.575 807.818C875.867 792.649 801.426 767.387 733.132 733.544L734.272 727.494C802.492 761.488 876.94 786.838 955.696 802.016C956.928 802.251 958.165 802.487 959.395 802.718C1150.38 838.703 1340.11 810.787 1494.02 723.975C1665.51 627.251 1779.03 464.574 1823.2 253.251L1829.28 254.397ZM1809.01 250.578C1765.64 457.628 1654.27 617.065 1486.05 711.929C1335.11 797.049 1149.12 824.437 961.947 789.172C960.706 788.938 959.48 788.704 958.238 788.464C879.415 773.268 804.968 747.695 736.95 713.278L738.09 707.229C806.026 741.808 880.488 767.456 959.36 782.664C960.583 782.898 961.821 783.134 963.041 783.364C1148.74 818.352 1333.19 791.216 1482.85 706.817C1649.52 612.827 1759.89 454.762 1802.93 249.431L1809.01 250.578ZM1788.74 246.755C1746.5 447.815 1638.28 602.639 1474.88 694.771C1328.2 777.474 1147.46 804.078 965.595 769.812C964.354 769.578 963.142 769.349 961.902 769.109C882.963 753.882 808.484 728.033 740.769 693.011L741.908 686.964C809.531 722.152 884.034 748.071 963.023 763.31C964.245 763.547 965.467 763.78 966.688 764.01C1147.09 797.999 1326.28 771.641 1471.68 689.659C1633.52 598.402 1740.75 444.955 1782.65 245.608L1788.74 246.755ZM1768.47 242.939C1727.36 438.006 1622.28 588.216 1463.7 677.612C1321.29 757.9 1145.81 783.724 969.238 750.457C968 750.223 966.797 749.997 965.557 749.757C886.476 734.491 812.024 708.222 744.625 672.545L745.782 666.407C813.09 702.271 887.536 728.676 966.678 743.954C1142.94 777.89 1318.38 752.617 1460.5 672.5C1617.53 583.98 1721.61 435.142 1762.38 241.792L1768.47 242.939ZM1748.19 239.119C1708.22 428.199 1606.28 573.794 1452.53 660.459C1314.37 738.329 1144.16 763.373 972.888 731.103C971.656 730.871 970.451 730.64 969.22 730.402C889.976 715.096 815.568 688.345 748.503 651.962L749.659 645.826C816.622 682.407 891.034 709.282 970.345 724.604C971.556 724.835 972.77 725.067 973.982 725.295C1143.79 757.289 1312.45 732.494 1449.33 655.346C1601.53 569.556 1702.47 425.333 1742.11 237.972L1748.19 239.119ZM1727.92 235.299C1689.08 418.39 1590.29 559.372 1441.35 643.304C1307.45 718.758 1142.51 743.02 976.532 711.748C975.308 711.518 974.097 711.287 972.872 711.05C893.468 695.698 819.071 668.505 752.382 631.377L753.538 625.242C820.111 662.577 894.526 689.886 973.995 705.25C1139.65 737.274 1304.56 713.472 1438.15 638.189C1585.53 555.136 1683.32 415.526 1721.84 234.153L1727.92 235.299ZM1707.65 231.479C1669.93 408.583 1574.29 544.952 1430.18 626.15C1300.54 699.184 1140.85 722.667 980.181 692.395C978.955 692.164 977.755 691.935 976.53 691.698C896.964 676.304 822.529 648.707 756.26 610.791L757.416 604.656C823.559 642.789 898.023 670.489 977.657 685.896C978.859 686.129 980.07 686.36 981.275 686.587C1140.48 716.582 1298.62 693.346 1426.98 621.033C1569.54 540.715 1664.19 405.717 1701.56 230.333L1707.65 231.479ZM1687.37 227.66C1650.8 398.778 1558.3 530.531 1419 608.995C1293.62 679.61 1139.2 702.31 983.825 673.037C982.602 672.806 981.405 672.578 980.18 672.341C900.418 656.898 826.009 628.746 760.183 589.971L761.359 583.73C827.053 622.752 901.457 651.076 981.307 666.539C982.512 666.772 983.72 667.003 984.92 667.229C1138.82 696.226 1291.7 673.774 1415.8 603.879C1553.54 526.292 1645.05 395.911 1681.29 226.514L1687.37 227.66ZM1667.09 223.839C1631.65 388.969 1542.3 516.114 1407.81 591.84C1286.7 660.042 1137.54 681.958 987.469 653.682C986.254 653.453 985.055 653.221 983.833 652.984C903.85 637.484 829.474 608.718 764.132 569.011L765.308 562.769C830.5 602.741 904.891 631.667 984.966 647.185C986.161 647.416 987.37 647.646 988.57 647.873C1137.17 675.872 1284.78 654.203 1404.62 586.723C1537.55 511.873 1625.91 386.101 1661.01 222.693L1667.09 223.839ZM1646.83 220.02C1612.52 379.164 1526.3 501.695 1396.63 574.686C1279.78 640.466 1135.89 661.601 991.116 634.325C989.899 634.095 988.703 633.864 987.48 633.628C907.276 618.07 832.874 588.746 768.082 548.047L769.257 541.809C833.878 582.787 908.317 612.252 988.612 627.83C989.811 628.062 991.016 628.292 992.213 628.517C1135.51 655.516 1277.86 634.63 1393.44 569.573C1521.55 497.454 1606.77 376.298 1640.74 218.874L1646.83 220.02ZM1626.55 216.2C1593.37 369.358 1510.3 487.279 1385.45 557.536C1272.86 620.896 1134.23 641.249 994.766 614.971C993.548 614.742 992.351 614.514 991.132 614.278C910.666 598.65 836.264 568.644 772.074 526.859L773.273 520.496C837.282 562.598 911.681 592.827 992.262 608.474C1131.38 635.507 1269.98 615.602 1382.25 552.418C1505.55 483.038 1587.62 366.491 1620.47 215.054L1626.55 216.2ZM1606.28 212.381C1574.23 359.554 1494.3 472.859 1374.26 540.387C1265.93 601.328 1132.58 620.896 998.412 595.617C997.198 595.388 995.993 595.155 994.779 594.92C914.016 579.218 839.633 548.434 776.106 505.458L777.305 499.097C840.618 542.411 915.031 573.395 995.906 589.118C997.098 589.352 998.309 589.584 999.503 589.809C1132.2 614.811 1264.01 595.487 1371.07 535.266C1489.55 468.618 1568.49 356.686 1600.19 211.234L1606.28 212.381ZM1586 208.561C1555.09 349.751 1478.3 458.445 1363.08 523.238C1259 581.755 1130.92 600.542 1002.06 576.262C1000.84 576.033 999.639 575.801 998.42 575.565C917.358 559.782 842.904 528.283 780.144 484.029L781.37 477.522C843.902 522.161 918.346 553.951 999.556 569.762C1128.09 594.786 1256.13 576.458 1359.88 518.116C1473.55 454.202 1549.35 346.879 1579.92 207.414L1586 208.561ZM1565.73 204.74C1535.95 339.944 1462.3 444.029 1351.89 506.081C1252.08 562.181 1129.26 580.182 1005.7 556.902C1004.49 556.672 1003.29 556.444 1002.07 556.205C920.614 540.327 846.196 507.818 784.273 462.115L785.498 455.613C847.151 501.728 921.599 534.498 1003.2 550.405C1126.38 574.319 1249.2 556.885 1348.7 500.964C1457.55 439.785 1530.2 337.075 1559.64 203.594L1565.73 204.74ZM1545.46 200.921C1516.81 330.144 1446.3 429.615 1340.7 488.935C1245.15 542.61 1127.61 559.83 1009.35 537.548C1008.13 537.319 1006.93 537.089 1005.71 536.85C923.857 520.866 849.355 487.435 788.406 440.176L789.663 433.505C850.309 481.24 924.809 515.032 1006.84 531.05C1124.73 553.972 1242.28 537.313 1337.51 483.816C1441.55 425.369 1511.07 327.273 1539.37 199.774L1545.46 200.921ZM1525.18 197.1C1497.67 320.34 1430.29 415.2 1329.52 471.786C1238.23 523.037 1125.95 539.473 1013 518.191C1011.78 517.961 1010.57 517.731 1009.35 517.492C926.99 501.381 852.493 466.714 792.646 417.673L793.903 411.005C853.386 460.564 927.94 495.549 1010.49 511.692C1011.63 511.915 1012.8 512.14 1013.94 512.354C1217.08 550.628 1458.48 467.587 1519.07 195.95L1525.18 197.1ZM1504.91 193.28C1478.53 310.541 1414.29 400.79 1318.32 454.636C1231.3 503.467 1124.29 519.119 1016.65 498.837C1015.42 498.607 1014.21 498.372 1012.99 498.132C930.066 481.882 855.49 445.929 796.935 394.911L798.228 388.048C856.363 439.663 930.972 476.04 1014.13 492.334C1015.27 492.559 1016.43 492.782 1017.58 492.999C1210.97 529.435 1440.73 450.471 1498.8 192.13L1504.91 193.28ZM1484.63 189.46C1459.39 300.741 1398.29 386.379 1307.13 437.493C1224.36 483.897 1122.63 498.764 1020.29 479.482C1019.07 479.251 1017.85 479.02 1016.63 478.777C933.057 462.365 858.337 424.971 801.303 371.727L802.637 364.649C859.176 418.592 933.909 456.512 1017.77 472.977C1018.91 473.202 1020.08 473.429 1021.23 473.645C1204.86 508.243 1422.97 433.358 1478.52 188.31L1484.63 189.46ZM1464.35 185.64C1440.26 290.938 1382.29 371.968 1295.93 420.345C1217.43 464.327 1120.97 478.408 1023.94 460.126C1022.71 459.894 1021.49 459.661 1020.26 459.417C935.871 442.809 861.049 403.608 805.817 347.771L807.169 340.595C861.793 397.216 936.697 436.947 1021.4 453.621C1022.56 453.848 1023.72 454.073 1024.87 454.29C1198.74 487.049 1405.22 416.246 1458.25 184.49L1464.35 185.64ZM1444.07 181.819C1421.12 281.141 1366.28 357.554 1284.74 403.202C1210.5 444.762 1119.31 458.056 1027.59 440.774C1026.35 440.542 1025.12 440.304 1023.89 440.06C938.513 423.213 863.506 381.92 810.469 323.077L811.872 315.634C864.156 375.404 939.275 417.339 1025.04 434.262C1026.19 434.488 1027.37 434.716 1028.52 434.933C1192.64 465.855 1387.47 399.14 1437.97 180.669L1444.07 181.819Z" fill="url(#paint2_linear_1_177)" fill-opacity="0.8"/>
</g>
<path d="M556.428 104.04H545.548V116H540.428V86.76H558.508V91.48H545.548V99.44H556.428V104.04ZM573.592 96.16V100.68H571.792C568.272 100.68 566.072 102.56 566.072 106.4V116H561.192V96.28H565.792L566.072 99.16C566.912 97.2 568.792 95.88 571.432 95.88C572.112 95.88 572.792 95.96 573.592 96.16ZM585.071 116.52C579.191 116.52 575.071 112.24 575.071 106.12C575.071 99.92 579.111 95.64 584.911 95.64C590.831 95.64 594.591 99.6 594.591 105.76V107.24L579.711 107.28C580.071 110.76 581.911 112.52 585.151 112.52C587.831 112.52 589.591 111.48 590.151 109.6H594.671C593.831 113.92 590.231 116.52 585.071 116.52ZM584.951 99.64C582.071 99.64 580.311 101.2 579.831 104.16H589.751C589.751 101.44 587.871 99.64 584.951 99.64ZM596.977 110H601.617C601.657 111.72 602.937 112.8 605.177 112.8C607.457 112.8 608.697 111.88 608.697 110.44C608.697 109.44 608.177 108.72 606.417 108.32L602.857 107.48C599.297 106.68 597.577 105 597.577 101.84C597.577 97.96 600.857 95.64 605.417 95.64C609.857 95.64 612.857 98.2 612.897 102.04H608.257C608.217 100.36 607.097 99.28 605.217 99.28C603.297 99.28 602.177 100.16 602.177 101.64C602.177 102.76 603.057 103.48 604.737 103.88L608.297 104.72C611.617 105.48 613.297 107 613.297 110.04C613.297 114.04 609.897 116.52 605.017 116.52C600.097 116.52 596.977 113.88 596.977 110ZM621.892 116H617.012V86.24H621.932V98.8C623.172 96.88 625.492 95.64 628.332 95.64C633.212 95.64 635.772 98.72 635.772 103.84V116H630.892V105C630.892 101.68 629.252 100.08 626.772 100.08C623.692 100.08 621.892 102.24 621.892 105.2V116ZM662.588 116H652.068V86.76H662.308C670.948 86.76 676.908 92.72 676.908 101.44C676.908 110.04 671.068 116 662.588 116ZM661.828 91.48H657.188V111.28H662.108C667.948 111.28 671.508 107.52 671.508 101.44C671.508 95.24 667.868 91.48 661.828 91.48ZM693.358 96.16V100.68H691.558C688.038 100.68 685.838 102.56 685.838 106.4V116H680.958V96.28H685.558L685.838 99.16C686.678 97.2 688.558 95.88 691.198 95.88C691.878 95.88 692.558 95.96 693.358 96.16ZM694.837 106.08C694.837 99.92 699.277 95.68 705.397 95.68C711.517 95.68 715.957 99.92 715.957 106.08C715.957 112.24 711.517 116.48 705.397 116.48C699.277 116.48 694.837 112.24 694.837 106.08ZM699.717 106.08C699.717 109.68 702.037 112.12 705.397 112.12C708.757 112.12 711.077 109.68 711.077 106.08C711.077 102.48 708.757 100.04 705.397 100.04C702.037 100.04 699.717 102.48 699.717 106.08ZM719.825 125.16V96.24H724.345L724.665 99.24C725.865 96.96 728.465 95.64 731.465 95.64C737.025 95.64 740.705 99.68 740.705 105.88C740.705 112.04 737.345 116.52 731.465 116.52C728.505 116.52 725.945 115.36 724.705 113.36V125.16H719.825ZM724.745 106.12C724.745 109.68 726.945 112.12 730.305 112.12C733.745 112.12 735.785 109.64 735.785 106.12C735.785 102.6 733.745 100.08 730.305 100.08C726.945 100.08 724.745 102.56 724.745 106.12ZM743.07 110H747.71C747.75 111.72 749.03 112.8 751.27 112.8C753.55 112.8 754.79 111.88 754.79 110.44C754.79 109.44 754.27 108.72 752.51 108.32L748.95 107.48C745.39 106.68 743.67 105 743.67 101.84C743.67 97.96 746.95 95.64 751.51 95.64C755.95 95.64 758.95 98.2 758.99 102.04H754.35C754.31 100.36 753.19 99.28 751.31 99.28C749.39 99.28 748.27 100.16 748.27 101.64C748.27 102.76 749.15 103.48 750.83 103.88L754.39 104.72C757.71 105.48 759.39 107 759.39 110.04C759.39 114.04 755.99 116.52 751.11 116.52C746.19 116.52 743.07 113.88 743.07 110ZM771.927 96.24H774.767V93.84C774.767 88.48 777.607 86.24 781.887 86.24C782.647 86.24 783.567 86.28 784.407 86.44V90.6H782.687C780.207 90.6 779.607 91.88 779.607 93.84V96.24H784.327V100.32H779.607V116H774.767V100.32H771.927V96.24ZM785.696 106.08C785.696 99.92 790.136 95.68 796.256 95.68C802.376 95.68 806.816 99.92 806.816 106.08C806.816 112.24 802.376 116.48 796.256 116.48C790.136 116.48 785.696 112.24 785.696 106.08ZM790.576 106.08C790.576 109.68 792.896 112.12 796.256 112.12C799.616 112.12 801.936 109.68 801.936 106.08C801.936 102.48 799.616 100.04 796.256 100.04C792.896 100.04 790.576 102.48 790.576 106.08ZM823.084 96.16V100.68H821.284C817.764 100.68 815.564 102.56 815.564 106.4V116H810.684V96.28H815.284L815.564 99.16C816.404 97.2 818.284 95.88 820.924 95.88C821.604 95.88 822.284 95.96 823.084 96.16ZM844.928 104.48L835.048 86.76H840.768L846.528 97.4C846.968 98.2 847.248 98.84 847.568 99.56C847.928 98.84 848.088 98.36 848.608 97.4L854.328 86.76H859.888L850.048 104.48V116H844.928V104.48ZM857.493 106.08C857.493 99.92 861.933 95.68 868.053 95.68C874.173 95.68 878.613 99.92 878.613 106.08C878.613 112.24 874.173 116.48 868.053 116.48C861.933 116.48 857.493 112.24 857.493 106.08ZM862.373 106.08C862.373 109.68 864.693 112.12 868.053 112.12C871.413 112.12 873.733 109.68 873.733 106.08C873.733 102.48 871.413 100.04 868.053 100.04C864.693 100.04 862.373 102.48 862.373 106.08ZM895.412 96.24H900.292V116H895.772L895.412 113.36C894.212 115.24 891.652 116.52 889.012 116.52C884.452 116.52 881.772 113.44 881.772 108.6V96.24H886.652V106.88C886.652 110.64 888.132 112.16 890.852 112.16C893.932 112.16 895.412 110.36 895.412 106.6V96.24Z" fill="url(#paint3_linear_1_177)"/>
<path d="M497.876 162H493.096V147.54H497.796C502.116 147.54 505.036 150.46 505.036 154.78C505.036 159.08 502.156 162 497.876 162ZM497.656 149.34H495.056V160.18H497.736C500.956 160.18 502.996 158.1 502.996 154.78C502.996 151.42 500.956 149.34 497.656 149.34ZM508.13 149.9C507.45 149.9 506.89 149.34 506.89 148.66C506.89 147.96 507.45 147.42 508.13 147.42C508.81 147.42 509.37 147.96 509.37 148.66C509.37 149.34 508.81 149.9 508.13 149.9ZM507.21 162V152.22H509.09V162H507.21ZM511.019 159.16H512.819C512.819 160.16 513.579 160.76 514.819 160.76C516.139 160.76 516.899 160.22 516.899 159.32C516.899 158.66 516.579 158.26 515.559 158L513.839 157.6C512.099 157.18 511.279 156.32 511.279 154.88C511.279 153.08 512.799 151.94 514.959 151.94C517.099 151.94 518.499 153.14 518.539 155H516.739C516.699 154.02 516.039 153.4 514.899 153.4C513.719 153.4 513.059 153.92 513.059 154.82C513.059 155.48 513.539 155.92 514.499 156.16L516.219 156.58C517.879 156.98 518.699 157.74 518.699 159.2C518.699 161.06 517.099 162.24 514.779 162.24C512.479 162.24 511.019 161.02 511.019 159.16ZM520.144 157.12C520.144 154.06 522.084 151.94 524.944 151.94C527.404 151.94 529.124 153.34 529.464 155.52H527.584C527.264 154.28 526.264 153.62 525.004 153.62C523.224 153.62 522.004 154.98 522.004 157.1C522.004 159.2 523.144 160.56 524.924 160.56C526.264 160.56 527.264 159.86 527.604 158.7H529.484C529.104 160.82 527.284 162.24 524.924 162.24C522.044 162.24 520.144 160.2 520.144 157.12ZM530.827 157.1C530.827 154.08 532.987 151.96 535.927 151.96C538.847 151.96 541.007 154.08 541.007 157.1C541.007 160.12 538.847 162.24 535.927 162.24C532.987 162.24 530.827 160.12 530.827 157.1ZM532.727 157.1C532.727 159.14 534.027 160.56 535.927 160.56C537.807 160.56 539.127 159.14 539.127 157.1C539.127 155.06 537.807 153.64 535.927 153.64C534.027 153.64 532.727 155.06 532.727 157.1ZM545.379 162L541.439 152.22H543.439L545.579 157.68C545.919 158.6 546.199 159.42 546.359 160.02C546.519 159.38 546.839 158.54 547.179 157.68L549.359 152.22H551.319L547.239 162H545.379ZM556.586 162.24C553.706 162.24 551.726 160.16 551.726 157.12C551.726 154.06 553.666 151.94 556.506 151.94C559.286 151.94 561.106 153.86 561.106 156.76V157.46L553.546 157.48C553.686 159.54 554.766 160.68 556.626 160.68C558.086 160.68 559.046 160.08 559.366 158.96H561.126C560.646 161.06 559.006 162.24 556.586 162.24ZM556.506 153.52C554.866 153.52 553.826 154.5 553.586 156.22H559.226C559.226 154.6 558.166 153.52 556.506 153.52ZM568.806 152.14V153.86H567.966C566.186 153.86 565.086 154.94 565.086 156.82V162H563.206V152.24H564.966L565.086 153.72C565.486 152.7 566.466 152.02 567.806 152.02C568.146 152.02 568.426 152.06 568.806 152.14ZM578.798 162H576.918V153.8H574.998V152.22H576.918V149.16H578.798V152.22H580.718V153.8H578.798V162ZM584.285 161.98H582.405V147.28H584.285V153.72C584.905 152.66 586.085 151.94 587.605 151.94C590.105 151.94 591.305 153.52 591.305 156.02V162H589.425V156.44C589.425 154.46 588.485 153.66 587.085 153.66C585.265 153.66 584.285 154.98 584.285 156.66V161.98ZM598.129 162.24C595.249 162.24 593.269 160.16 593.269 157.12C593.269 154.06 595.209 151.94 598.049 151.94C600.829 151.94 602.649 153.86 602.649 156.76V157.46L595.089 157.48C595.229 159.54 596.309 160.68 598.169 160.68C599.629 160.68 600.589 160.08 600.909 158.96H602.669C602.189 161.06 600.549 162.24 598.129 162.24ZM598.049 153.52C596.409 153.52 595.369 154.5 595.129 156.22H600.769C600.769 154.6 599.709 153.52 598.049 153.52ZM612.137 162H610.257V147.28H612.137V162ZM617.765 162.24C615.665 162.24 614.425 161.06 614.425 159.28C614.425 157.48 615.765 156.36 618.065 156.18L621.145 155.94V155.66C621.145 154.02 620.165 153.44 618.845 153.44C617.265 153.44 616.365 154.14 616.365 155.32H614.725C614.725 153.28 616.405 151.94 618.925 151.94C621.345 151.94 622.985 153.22 622.985 155.86V162H621.385L621.185 160.42C620.685 161.54 619.345 162.24 617.765 162.24ZM618.305 160.78C620.085 160.78 621.165 159.62 621.165 157.78V157.26L618.665 157.46C617.005 157.62 616.325 158.26 616.325 159.22C616.325 160.26 617.085 160.78 618.305 160.78ZM628.192 162H626.312V153.8H624.392V152.22H626.312V149.16H628.192V152.22H630.112V153.8H628.192V162ZM635.922 162.24C633.042 162.24 631.062 160.16 631.062 157.12C631.062 154.06 633.002 151.94 635.842 151.94C638.622 151.94 640.442 153.86 640.442 156.76V157.46L632.882 157.48C633.022 159.54 634.102 160.68 635.962 160.68C637.422 160.68 638.382 160.08 638.702 158.96H640.462C639.982 161.06 638.342 162.24 635.922 162.24ZM635.842 153.52C634.202 153.52 633.162 154.5 632.922 156.22H638.562C638.562 154.6 637.502 153.52 635.842 153.52ZM641.742 159.16H643.542C643.542 160.16 644.302 160.76 645.542 160.76C646.862 160.76 647.622 160.22 647.622 159.32C647.622 158.66 647.302 158.26 646.282 158L644.562 157.6C642.822 157.18 642.002 156.32 642.002 154.88C642.002 153.08 643.522 151.94 645.682 151.94C647.822 151.94 649.222 153.14 649.262 155H647.462C647.422 154.02 646.762 153.4 645.622 153.4C644.442 153.4 643.782 153.92 643.782 154.82C643.782 155.48 644.262 155.92 645.222 156.16L646.942 156.58C648.602 156.98 649.422 157.74 649.422 159.2C649.422 161.06 647.822 162.24 645.502 162.24C643.202 162.24 641.742 161.02 641.742 159.16ZM654.266 162H652.386V153.8H650.466V152.22H652.386V149.16H654.266V152.22H656.186V153.8H654.266V162ZM665.222 162H663.342V152.22H665.022L665.202 153.5C665.702 152.58 666.742 151.94 668.122 151.94C669.642 151.94 670.722 152.7 671.222 153.92C671.682 152.7 672.862 151.94 674.382 151.94C676.622 151.94 677.982 153.34 677.982 155.6V162H676.142V156.06C676.142 154.52 675.282 153.64 673.962 153.64C672.542 153.64 671.602 154.64 671.602 156.2V162H669.742V156.04C669.742 154.5 668.902 153.66 667.582 153.66C666.162 153.66 665.222 154.64 665.222 156.2V162ZM687.349 152.22H689.209V162H687.529L687.329 160.52C686.769 161.54 685.469 162.24 684.029 162.24C681.749 162.24 680.469 160.7 680.469 158.3V152.22H682.349V157.68C682.349 159.78 683.249 160.58 684.689 160.58C686.409 160.58 687.349 159.48 687.349 157.38V152.22ZM690.941 159.16H692.741C692.741 160.16 693.501 160.76 694.741 160.76C696.061 160.76 696.821 160.22 696.821 159.32C696.821 158.66 696.501 158.26 695.481 158L693.761 157.6C692.021 157.18 691.201 156.32 691.201 154.88C691.201 153.08 692.721 151.94 694.881 151.94C697.021 151.94 698.421 153.14 698.461 155H696.661C696.621 154.02 695.961 153.4 694.821 153.4C693.641 153.4 692.981 153.92 692.981 154.82C692.981 155.48 693.461 155.92 694.421 156.16L696.141 156.58C697.801 156.98 698.621 157.74 698.621 159.2C698.621 161.06 697.021 162.24 694.701 162.24C692.401 162.24 690.941 161.02 690.941 159.16ZM701.626 149.9C700.946 149.9 700.386 149.34 700.386 148.66C700.386 147.96 700.946 147.42 701.626 147.42C702.306 147.42 702.866 147.96 702.866 148.66C702.866 149.34 702.306 149.9 701.626 149.9ZM700.706 162V152.22H702.586V162H700.706ZM704.675 157.12C704.675 154.06 706.615 151.94 709.475 151.94C711.935 151.94 713.655 153.34 713.995 155.52H712.115C711.795 154.28 710.795 153.62 709.535 153.62C707.755 153.62 706.535 154.98 706.535 157.1C706.535 159.2 707.675 160.56 709.455 160.56C710.795 160.56 711.795 159.86 712.135 158.7H714.015C713.635 160.82 711.815 162.24 709.455 162.24C706.575 162.24 704.675 160.2 704.675 157.12ZM724.227 162H722.347V153.8H720.427V152.22H722.347V149.16H724.227V152.22H726.147V153.8H724.227V162ZM733.435 152.14V153.86H732.595C730.815 153.86 729.715 154.94 729.715 156.82V162H727.835V152.24H729.595L729.715 153.72C730.115 152.7 731.095 152.02 732.435 152.02C732.775 152.02 733.055 152.06 733.435 152.14ZM739.066 162.24C736.186 162.24 734.206 160.16 734.206 157.12C734.206 154.06 736.146 151.94 738.986 151.94C741.766 151.94 743.586 153.86 743.586 156.76V157.46L736.026 157.48C736.166 159.54 737.246 160.68 739.106 160.68C740.566 160.68 741.526 160.08 741.846 158.96H743.606C743.126 161.06 741.486 162.24 739.066 162.24ZM738.986 153.52C737.346 153.52 736.306 154.5 736.066 156.22H741.706C741.706 154.6 740.646 153.52 738.986 153.52ZM747.566 162H745.686V152.22H747.386L747.586 153.72C748.206 152.6 749.446 151.94 750.826 151.94C753.406 151.94 754.586 153.52 754.586 156.02V162H752.706V156.44C752.706 154.46 751.786 153.66 750.346 153.66C748.586 153.66 747.566 154.92 747.566 156.82V162ZM761.11 162.24C758.27 162.24 756.55 160.12 756.55 157.14C756.55 154.14 758.29 151.94 761.19 151.94C762.69 151.94 763.95 152.6 764.61 153.8V147.28H766.47V162H764.79L764.63 160.22C763.99 161.56 762.67 162.24 761.11 162.24ZM761.49 160.54C763.41 160.54 764.59 159.12 764.59 157.08C764.59 155.08 763.41 153.64 761.49 153.64C759.57 153.64 758.45 155.08 758.45 157.08C758.45 159.1 759.57 160.54 761.49 160.54ZM768.382 159.16H770.182C770.182 160.16 770.942 160.76 772.182 160.76C773.502 160.76 774.262 160.22 774.262 159.32C774.262 158.66 773.942 158.26 772.922 158L771.202 157.6C769.462 157.18 768.642 156.32 768.642 154.88C768.642 153.08 770.162 151.94 772.322 151.94C774.462 151.94 775.862 153.14 775.902 155H774.102C774.062 154.02 773.402 153.4 772.262 153.4C771.082 153.4 770.422 153.92 770.422 154.82C770.422 155.48 770.902 155.92 771.862 156.16L773.582 156.58C775.242 156.98 776.062 157.74 776.062 159.2C776.062 161.06 774.462 162.24 772.142 162.24C769.842 162.24 768.382 161.02 768.382 159.16ZM786.476 162.24C784.376 162.24 783.136 161.06 783.136 159.28C783.136 157.48 784.476 156.36 786.776 156.18L789.856 155.94V155.66C789.856 154.02 788.876 153.44 787.556 153.44C785.976 153.44 785.076 154.14 785.076 155.32H783.436C783.436 153.28 785.116 151.94 787.636 151.94C790.056 151.94 791.696 153.22 791.696 155.86V162H790.096L789.896 160.42C789.396 161.54 788.056 162.24 786.476 162.24ZM787.016 160.78C788.796 160.78 789.876 159.62 789.876 157.78V157.26L787.376 157.46C785.716 157.62 785.036 158.26 785.036 159.22C785.036 160.26 785.796 160.78 787.016 160.78ZM796.179 162H794.299V152.22H795.999L796.199 153.72C796.819 152.6 798.059 151.94 799.439 151.94C802.019 151.94 803.199 153.52 803.199 156.02V162H801.319V156.44C801.319 154.46 800.399 153.66 798.959 153.66C797.199 153.66 796.179 154.92 796.179 156.82V162ZM809.723 162.24C806.883 162.24 805.163 160.12 805.163 157.14C805.163 154.14 806.903 151.94 809.803 151.94C811.303 151.94 812.563 152.6 813.223 153.8V147.28H815.083V162H813.403L813.243 160.22C812.603 161.56 811.283 162.24 809.723 162.24ZM810.103 160.54C812.023 160.54 813.203 159.12 813.203 157.08C813.203 155.08 812.023 153.64 810.103 153.64C808.183 153.64 807.063 155.08 807.063 157.08C807.063 159.1 808.183 160.54 810.103 160.54ZM822.464 159.16H824.264C824.264 160.16 825.024 160.76 826.264 160.76C827.584 160.76 828.344 160.22 828.344 159.32C828.344 158.66 828.024 158.26 827.004 158L825.284 157.6C823.544 157.18 822.724 156.32 822.724 154.88C822.724 153.08 824.244 151.94 826.404 151.94C828.544 151.94 829.944 153.14 829.984 155H828.184C828.144 154.02 827.484 153.4 826.344 153.4C825.164 153.4 824.504 153.92 824.504 154.82C824.504 155.48 824.984 155.92 825.944 156.16L827.664 156.58C829.324 156.98 830.144 157.74 830.144 159.2C830.144 161.06 828.544 162.24 826.224 162.24C823.924 162.24 822.464 161.02 822.464 159.16ZM834.109 162H832.229V152.22H833.929L834.129 153.72C834.749 152.6 835.989 151.94 837.369 151.94C839.949 151.94 841.129 153.52 841.129 156.02V162H839.249V156.44C839.249 154.46 838.329 153.66 836.889 153.66C835.129 153.66 834.109 154.92 834.109 156.82V162ZM844.653 149.9C843.973 149.9 843.413 149.34 843.413 148.66C843.413 147.96 843.973 147.42 844.653 147.42C845.333 147.42 845.893 147.96 845.893 148.66C845.893 149.34 845.333 149.9 844.653 149.9ZM843.733 162V152.22H845.613V162H843.733ZM848.342 166.38V152.22H850.042L850.182 153.98C850.842 152.64 852.162 151.94 853.722 151.94C856.522 151.94 858.262 154.04 858.262 157.04C858.262 160.02 856.622 162.26 853.722 162.26C852.162 162.26 850.862 161.6 850.222 160.4V166.38H848.342ZM850.242 157.12C850.242 159.12 851.402 160.56 853.322 160.56C855.242 160.56 856.382 159.12 856.382 157.12C856.382 155.1 855.242 153.66 853.322 153.66C851.402 153.66 850.242 155.08 850.242 157.12ZM860.335 166.38V152.22H862.035L862.175 153.98C862.835 152.64 864.155 151.94 865.715 151.94C868.515 151.94 870.255 154.04 870.255 157.04C870.255 160.02 868.615 162.26 865.715 162.26C864.155 162.26 862.855 161.6 862.215 160.4V166.38H860.335ZM862.235 157.12C862.235 159.12 863.395 160.56 865.315 160.56C867.235 160.56 868.375 159.12 868.375 157.12C868.375 155.1 867.235 153.66 865.315 153.66C863.395 153.66 862.235 155.08 862.235 157.12ZM876.547 162.24C873.667 162.24 871.687 160.16 871.687 157.12C871.687 154.06 873.627 151.94 876.467 151.94C879.247 151.94 881.067 153.86 881.067 156.76V157.46L873.507 157.48C873.647 159.54 874.727 160.68 876.587 160.68C878.047 160.68 879.007 160.08 879.327 158.96H881.087C880.607 161.06 878.967 162.24 876.547 162.24ZM876.467 153.52C874.827 153.52 873.787 154.5 873.547 156.22H879.187C879.187 154.6 878.127 153.52 876.467 153.52ZM885.829 162H883.949V153.8H882.029V152.22H883.949V149.16H885.829V152.22H887.749V153.8H885.829V162ZM888.636 159.16H890.436C890.436 160.16 891.196 160.76 892.436 160.76C893.756 160.76 894.516 160.22 894.516 159.32C894.516 158.66 894.196 158.26 893.176 158L891.456 157.6C889.716 157.18 888.896 156.32 888.896 154.88C888.896 153.08 890.416 151.94 892.576 151.94C894.716 151.94 896.116 153.14 896.156 155H894.356C894.316 154.02 893.656 153.4 892.516 153.4C891.336 153.4 890.676 153.92 890.676 154.82C890.676 155.48 891.156 155.92 892.116 156.16L893.836 156.58C895.496 156.98 896.316 157.74 896.316 159.2C896.316 161.06 894.716 162.24 892.396 162.24C890.096 162.24 888.636 161.02 888.636 159.16ZM905.75 161.98H903.87V147.28H905.75V153.72C906.37 152.66 907.55 151.94 909.07 151.94C911.57 151.94 912.77 153.52 912.77 156.02V162H910.89V156.44C910.89 154.46 909.95 153.66 908.55 153.66C906.73 153.66 905.75 154.98 905.75 156.66V161.98ZM919.594 162.24C916.714 162.24 914.734 160.16 914.734 157.12C914.734 154.06 916.674 151.94 919.514 151.94C922.294 151.94 924.114 153.86 924.114 156.76V157.46L916.554 157.48C916.694 159.54 917.774 160.68 919.634 160.68C921.094 160.68 922.054 160.08 922.374 158.96H924.134C923.654 161.06 922.014 162.24 919.594 162.24ZM919.514 153.52C917.874 153.52 916.834 154.5 916.594 156.22H922.234C922.234 154.6 921.174 153.52 919.514 153.52ZM931.814 152.14V153.86H930.974C929.194 153.86 928.094 154.94 928.094 156.82V162H926.214V152.24H927.974L928.094 153.72C928.494 152.7 929.474 152.02 930.814 152.02C931.154 152.02 931.434 152.06 931.814 152.14ZM937.445 162.24C934.565 162.24 932.585 160.16 932.585 157.12C932.585 154.06 934.525 151.94 937.365 151.94C940.145 151.94 941.965 153.86 941.965 156.76V157.46L934.405 157.48C934.545 159.54 935.625 160.68 937.485 160.68C938.945 160.68 939.905 160.08 940.225 158.96H941.985C941.505 161.06 939.865 162.24 937.445 162.24ZM937.365 153.52C935.725 153.52 934.685 154.5 934.445 156.22H940.085C940.085 154.6 939.025 153.52 937.365 153.52ZM946.365 157.66H944.905C944.705 156.16 944.565 153.5 944.565 150.9V147.54H946.725V150.9C946.725 153.54 946.565 156.18 946.365 157.66ZM945.645 162.28C944.845 162.28 944.205 161.64 944.205 160.86C944.205 160.08 944.845 159.44 945.645 159.44C946.405 159.44 947.065 160.08 947.065 160.86C947.065 161.64 946.405 162.28 945.645 162.28Z" fill="#838AA7"/>
<rect x="943.374" y="370.603" width="396.251" height="306.007" rx="31.545" fill="#413B74"/>
<rect x="943.374" y="370.603" width="396.251" height="306.007" rx="31.545" stroke="url(#paint4_linear_1_177)" stroke-width="0.749311"/>
<rect x="966.939" y="394.169" width="214.46" height="202.49" rx="19.9498" fill="#F9FBFC"/>
<circle cx="1074.17" cy="495.413" r="57.3555" fill="#6D7481"/>
<circle cx="1074.17" cy="512.371" r="40.3982" fill="#1E2938"/>
<rect x="1256.21" y="394.169" width="59.8492" height="59.8492" rx="29.9246" fill="#EDEEF1"/>
<path d="M1295.52 421.455C1296 421.71 1296.4 422.091 1296.68 422.556C1296.96 423.021 1297.11 423.553 1297.11 424.096C1297.11 424.638 1296.96 425.171 1296.68 425.636C1296.4 426.101 1296 426.481 1295.52 426.736L1282.74 433.686C1280.68 434.806 1278.16 433.349 1278.16 431.046V417.146C1278.16 414.842 1280.68 413.387 1282.74 414.505L1295.52 421.455Z" fill="black"/>
<path d="M974.02 623.63H968.072V613.879H974.02V615.092H969.394V618.141H973.562V619.314H969.394V622.403H974.02V623.63ZM976.988 623.63H975.72L975.72 617.035H976.866L977.001 618.046C977.419 617.291 978.256 616.846 979.186 616.846C980.926 616.846 981.722 617.911 981.722 619.597V623.63H980.454V619.881C980.454 618.545 979.834 618.006 978.862 618.006C977.676 618.006 976.988 618.856 976.988 620.137V623.63ZM986.324 623.792C984.382 623.792 983.046 622.389 983.046 620.339C983.046 618.276 984.355 616.846 986.27 616.846C988.145 616.846 989.372 618.141 989.372 620.096V620.568L984.274 620.582C984.368 621.971 985.096 622.74 986.351 622.74C987.335 622.74 987.983 622.335 988.199 621.58H989.385C989.062 622.996 987.956 623.792 986.324 623.792ZM986.27 617.911C985.164 617.911 984.462 618.572 984.301 619.732H988.104C988.104 618.64 987.389 617.911 986.27 617.911ZM994.565 616.981V618.141H993.998C992.798 618.141 992.056 618.869 992.056 620.137V623.63H990.788V617.048H991.975L992.056 618.046C992.326 617.358 992.987 616.9 993.89 616.9C994.119 616.9 994.308 616.927 994.565 616.981ZM995.191 620.164C995.191 618.303 996.391 616.846 998.306 616.846C999.372 616.846 1000.19 617.331 1000.61 618.154L1000.71 617.035H1001.84V623.36C1001.84 625.437 1000.56 626.759 998.536 626.759C996.742 626.759 995.514 625.748 995.272 624.075H996.539C996.701 625.046 997.43 625.613 998.536 625.613C999.776 625.613 1000.59 624.804 1000.59 623.549V622.227C1000.15 622.996 999.291 623.455 998.252 623.455C996.378 623.455 995.191 622.012 995.191 620.164ZM996.459 620.137C996.459 621.378 997.227 622.349 998.468 622.349C999.749 622.349 1000.53 621.432 1000.53 620.137C1000.53 618.869 999.776 617.952 998.482 617.952C997.214 617.952 996.459 618.923 996.459 620.137ZM1006.52 623.792C1004.57 623.792 1003.24 622.389 1003.24 620.339C1003.24 618.276 1004.55 616.846 1006.46 616.846C1008.34 616.846 1009.56 618.141 1009.56 620.096V620.568L1004.47 620.582C1004.56 621.971 1005.29 622.74 1006.54 622.74C1007.53 622.74 1008.17 622.335 1008.39 621.58H1009.58C1009.25 622.996 1008.15 623.792 1006.52 623.792ZM1006.46 617.911C1005.36 617.911 1004.65 618.572 1004.49 619.732H1008.3C1008.3 618.64 1007.58 617.911 1006.46 617.911ZM1012.78 623.63H1011.51V618.1H1010.21V617.035H1011.51V614.971H1012.78V617.035H1014.07V618.1H1012.78V623.63ZM1015.83 615.47C1015.37 615.47 1014.99 615.092 1014.99 614.634C1014.99 614.162 1015.37 613.798 1015.83 613.798C1016.29 613.798 1016.66 614.162 1016.66 614.634C1016.66 615.092 1016.29 615.47 1015.83 615.47ZM1015.21 623.63V617.035H1016.48V623.63H1015.21ZM1017.88 620.339C1017.88 618.276 1019.19 616.846 1021.12 616.846C1022.78 616.846 1023.94 617.79 1024.17 619.26H1022.9C1022.69 618.424 1022.01 617.979 1021.16 617.979C1019.96 617.979 1019.14 618.896 1019.14 620.326C1019.14 621.742 1019.91 622.659 1021.11 622.659C1022.01 622.659 1022.69 622.187 1022.92 621.405H1024.18C1023.93 622.834 1022.7 623.792 1021.11 623.792C1019.17 623.792 1017.88 622.416 1017.88 620.339Z" fill="#D0D4F5"/>
<path d="M968.762 649.218V638.092H971.831V649.026C971.831 651.544 973.198 652.935 975.691 652.935C978.185 652.935 979.576 651.52 979.576 649.026V638.092H982.645V649.218C982.645 653.318 979.959 655.908 975.691 655.908C971.447 655.908 968.762 653.342 968.762 649.218ZM985.989 661.111V643.775H988.698L988.89 645.573C989.609 644.207 991.168 643.415 992.966 643.415C996.299 643.415 998.505 645.837 998.505 649.554C998.505 653.246 996.491 655.932 992.966 655.932C991.192 655.932 989.657 655.236 988.914 654.038V661.111H985.989ZM988.938 649.698C988.938 651.832 990.257 653.294 992.271 653.294C994.333 653.294 995.556 651.808 995.556 649.698C995.556 647.588 994.333 646.077 992.271 646.077C990.257 646.077 988.938 647.564 988.938 649.698ZM1003.54 655.62H1000.83V637.781H1003.76V645.501C1004.53 644.183 1006.11 643.391 1007.91 643.391C1011.29 643.391 1013.35 646.029 1013.35 649.769C1013.35 653.414 1011.12 655.932 1007.72 655.932C1005.94 655.932 1004.43 655.141 1003.74 653.774L1003.54 655.62ZM1003.78 649.65C1003.78 651.784 1005.1 653.246 1007.12 653.246C1009.18 653.246 1010.4 651.76 1010.4 649.65C1010.4 647.54 1009.18 646.029 1007.12 646.029C1005.1 646.029 1003.78 647.516 1003.78 649.65ZM1020.98 655.932C1017.45 655.932 1014.98 653.366 1014.98 649.698C1014.98 645.981 1017.41 643.415 1020.88 643.415C1024.43 643.415 1026.69 645.789 1026.69 649.482V650.369L1017.77 650.393C1017.98 652.479 1019.08 653.534 1021.03 653.534C1022.63 653.534 1023.69 652.911 1024.02 651.784H1026.73C1026.23 654.373 1024.07 655.932 1020.98 655.932ZM1020.91 645.813C1019.18 645.813 1018.13 646.748 1017.84 648.523H1023.78C1023.78 646.892 1022.66 645.813 1020.91 645.813ZM1032.43 655.932C1029.92 655.932 1028.38 654.469 1028.38 652.239C1028.38 650.057 1029.97 648.69 1032.77 648.475L1036.32 648.211V647.947C1036.32 646.341 1035.36 645.693 1033.87 645.693C1032.15 645.693 1031.19 646.413 1031.19 647.659H1028.69C1028.69 645.094 1030.8 643.415 1034.02 643.415C1037.21 643.415 1039.17 645.142 1039.17 648.427V655.62H1036.61L1036.39 653.87C1035.89 655.093 1034.28 655.932 1032.43 655.932ZM1033.39 653.726C1035.19 653.726 1036.34 652.647 1036.34 650.825V650.201L1033.87 650.393C1032.05 650.561 1031.36 651.16 1031.36 652.119C1031.36 653.198 1032.08 653.726 1033.39 653.726ZM1045.91 655.62H1042.99V646.221H1040.71V643.775H1042.99V640.082H1045.91V643.775H1048.21V646.221H1045.91V655.62ZM1063.86 649.578H1059.99V655.62H1056.93V638.092H1063.86C1067.38 638.092 1069.66 640.394 1069.66 643.823C1069.66 647.204 1067.36 649.578 1063.86 649.578ZM1063.26 640.826H1059.99V646.844H1063.21C1065.32 646.844 1066.44 645.717 1066.44 643.799C1066.44 641.881 1065.29 640.826 1063.26 640.826ZM1070.53 649.674C1070.53 645.981 1073.19 643.439 1076.86 643.439C1080.53 643.439 1083.19 645.981 1083.19 649.674C1083.19 653.366 1080.53 655.908 1076.86 655.908C1073.19 655.908 1070.53 653.366 1070.53 649.674ZM1073.45 649.674C1073.45 651.832 1074.84 653.294 1076.86 653.294C1078.87 653.294 1080.26 651.832 1080.26 649.674C1080.26 647.516 1078.87 646.053 1076.86 646.053C1074.84 646.053 1073.45 647.516 1073.45 649.674ZM1085.51 661.111V643.775H1088.22L1088.41 645.573C1089.13 644.207 1090.69 643.415 1092.48 643.415C1095.82 643.415 1098.02 645.837 1098.02 649.554C1098.02 653.246 1096.01 655.932 1092.48 655.932C1090.71 655.932 1089.18 655.236 1088.43 654.038V661.111H1085.51ZM1088.46 649.698C1088.46 651.832 1089.77 653.294 1091.79 653.294C1093.85 653.294 1095.07 651.808 1095.07 649.698C1095.07 647.588 1093.85 646.077 1091.79 646.077C1089.77 646.077 1088.46 647.564 1088.46 649.698Z" fill="white"/>
<rect x="100.501" y="369.683" width="397.416" height="306.85" rx="31.533" fill="#413B74"/>
<rect x="100.501" y="369.683" width="397.416" height="306.85" rx="31.533" stroke="url(#paint5_linear_1_177)" stroke-width="1.00105"/>
<rect x="124.026" y="393.207" width="215.225" height="203.213" rx="20.021" fill="#FDE2E2"/>
<circle cx="231.638" cy="494.815" r="57.5602" fill="#EE4643"/>
<circle cx="231.638" cy="511.833" r="40.5424" fill="#FCE3E1"/>
<circle cx="231.637" cy="529.854" r="22.5236" fill="#7E1D1C"/>
<rect x="414.329" y="393.207" width="60.0629" height="60.0629" rx="30.0314" fill="#EDEEF1"/>
<path d="M453.78 420.587C454.26 420.843 454.663 421.224 454.943 421.691C455.223 422.158 455.372 422.692 455.372 423.237C455.372 423.781 455.223 424.316 454.943 424.782C454.663 425.249 454.26 425.631 453.78 425.887L440.954 432.861C438.889 433.985 436.352 432.523 436.352 430.212V416.262C436.352 413.95 438.889 412.489 440.954 413.612L453.78 420.587Z" fill="black"/>
<path d="M125.569 623.431H124.188L127.762 613.645H129.237L132.824 623.431H131.43L130.55 620.995H126.435L125.569 623.431ZM128.33 615.757L126.841 619.844H130.158L128.655 615.757C128.587 615.567 128.52 615.337 128.493 615.188C128.466 615.324 128.398 615.554 128.33 615.757ZM135.181 623.431H133.908V616.812H135.045L135.167 617.679C135.506 617.056 136.209 616.623 137.143 616.623C138.172 616.623 138.903 617.137 139.241 617.963C139.553 617.137 140.351 616.623 141.38 616.623C142.896 616.623 143.817 617.57 143.817 619.1V623.431H142.571V619.411C142.571 618.369 141.989 617.773 141.096 617.773C140.135 617.773 139.499 618.45 139.499 619.506V623.431H138.24V619.398C138.24 618.356 137.671 617.787 136.778 617.787C135.817 617.787 135.181 618.45 135.181 619.506V623.431ZM146.731 623.431H145.58V613.469H146.853V617.949C147.286 617.083 148.179 616.623 149.262 616.623C151.157 616.623 152.294 618.112 152.294 620.156C152.294 622.159 151.103 623.594 149.181 623.594C148.139 623.594 147.259 623.134 146.826 622.227L146.731 623.431ZM146.866 620.102C146.866 621.482 147.651 622.443 148.951 622.443C150.25 622.443 151.022 621.469 151.022 620.102C151.022 618.748 150.25 617.773 148.951 617.773C147.651 617.773 146.866 618.748 146.866 620.102ZM154.319 615.242C153.859 615.242 153.48 614.863 153.48 614.403C153.48 613.929 153.859 613.564 154.319 613.564C154.779 613.564 155.158 613.929 155.158 614.403C155.158 614.863 154.779 615.242 154.319 615.242ZM153.696 623.431V616.812H154.969V623.431H153.696ZM159.672 623.594C157.723 623.594 156.383 622.186 156.383 620.129C156.383 618.058 157.696 616.623 159.618 616.623C161.499 616.623 162.731 617.922 162.731 619.885V620.359L157.615 620.372C157.709 621.767 158.44 622.538 159.699 622.538C160.687 622.538 161.337 622.132 161.553 621.374H162.745C162.42 622.795 161.31 623.594 159.672 623.594ZM159.618 617.692C158.508 617.692 157.804 618.356 157.642 619.52H161.459C161.459 618.423 160.741 617.692 159.618 617.692ZM165.425 623.431H164.152V616.812H165.303L165.438 617.828C165.858 617.07 166.697 616.623 167.631 616.623C169.377 616.623 170.176 617.692 170.176 619.384V623.431H168.903V619.668C168.903 618.328 168.281 617.787 167.306 617.787C166.115 617.787 165.425 618.64 165.425 619.926V623.431ZM173.806 623.431H172.533V617.882H171.234V616.812H172.533V614.741H173.806V616.812H175.105V617.882H173.806V623.431Z" fill="#D0D4F5"/>
<path d="M129.055 639.845V654.596H136.419V657.436H125.975V639.845H129.055ZM137.557 651.468C137.557 647.762 140.228 645.211 143.91 645.211C147.592 645.211 150.263 647.762 150.263 651.468C150.263 655.174 147.592 657.724 143.91 657.724C140.228 657.724 137.557 655.174 137.557 651.468ZM140.493 651.468C140.493 653.634 141.889 655.101 143.91 655.101C145.931 655.101 147.327 653.634 147.327 651.468C147.327 649.302 145.931 647.834 143.91 647.834C141.889 647.834 140.493 649.302 140.493 651.468ZM160.845 657.436V648.003H155.984V657.436H153.072V648.003H151.364V645.548H153.072V644.104C153.072 640.88 154.757 639.532 157.163 639.532C157.62 639.532 158.174 639.556 158.679 639.653V642.155H157.644C156.321 642.155 155.984 642.925 155.984 644.104V645.548H163.78V657.436H160.845ZM162.313 643.118C161.326 643.118 160.556 642.348 160.556 641.361C160.556 640.399 161.326 639.629 162.313 639.629C163.275 639.629 164.045 640.399 164.045 641.361C164.045 642.348 163.275 643.118 162.313 643.118ZM181.162 657.724C176.036 657.724 172.715 654.163 172.715 648.652C172.715 643.19 176.156 639.556 181.306 639.556C185.469 639.556 188.573 641.987 189.175 645.765H185.926C185.325 643.719 183.568 642.516 181.234 642.516C177.985 642.516 175.94 644.874 175.94 648.628C175.94 652.358 178.009 654.765 181.234 654.765C183.616 654.765 185.445 653.513 186.022 651.564H189.223C188.549 655.27 185.325 657.724 181.162 657.724ZM194.37 657.436H191.434V639.532H194.394V647.088C195.14 645.933 196.536 645.187 198.244 645.187C201.18 645.187 202.72 647.04 202.72 650.12V657.436H199.784V650.818C199.784 648.821 198.798 647.858 197.306 647.858C195.453 647.858 194.37 649.158 194.37 650.938V657.436ZM207.072 643.166C206.062 643.166 205.268 642.372 205.268 641.385C205.268 640.399 206.062 639.629 207.072 639.629C208.035 639.629 208.829 640.399 208.829 641.385C208.829 642.372 208.035 643.166 207.072 643.166ZM205.605 657.436V645.548H208.54V657.436H205.605ZM214.533 657.436H211.622V639.532H214.533V657.436ZM220.573 657.436H217.661V639.532H220.573V657.436Z" fill="white"/>
<g filter="url(#filter0_dddd_1_177)">
<rect x="522.001" y="254.553" width="397.998" height="307.527" rx="31.9997" fill="#1E273E"/>
<rect x="522.377" y="254.928" width="397.246" height="306.776" rx="31.6241" stroke="url(#paint6_linear_1_177)" stroke-width="0.75119"/>
<g clip-path="url(#clip1_1_177)">
<rect x="546.001" y="278.551" width="215" height="203" rx="19.9998" fill="#D0FAE6"/>
<path d="M599 326.55C599 340.872 604.689 354.607 614.816 364.734C624.943 374.861 638.678 380.55 653 380.55C667.322 380.55 681.057 374.861 691.184 364.734C701.311 354.607 707 340.872 707 326.55L653 326.55H599Z" fill="#119184"/>
<path d="M707 434.55C707 420.229 701.31 406.494 691.184 396.367C681.057 386.24 667.321 380.55 653 380.55C638.678 380.55 624.943 386.24 614.816 396.367C604.689 406.494 599 420.229 599 434.55L653 434.55H707Z" fill="#13B8A7"/>
</g>
<rect x="835.998" y="278.551" width="60.0001" height="60.0001" rx="30" fill="#EDEEF1"/>
<path d="M875.407 305.904C875.887 306.16 876.289 306.541 876.569 307.007C876.849 307.474 876.998 308.007 876.998 308.551C876.998 309.095 876.849 309.629 876.569 310.095C876.289 310.562 875.887 310.943 875.407 311.198L862.595 318.165C860.532 319.288 857.998 317.828 857.998 315.519V301.584C857.998 299.274 860.532 297.815 862.595 298.936L875.407 305.904Z" fill="black"/>
<path d="M555.952 503.654C555.952 506.629 554.005 508.711 551.233 508.711C548.475 508.711 546.555 506.629 546.555 503.654C546.555 500.693 548.489 498.597 551.247 498.597C554.019 498.597 555.952 500.679 555.952 503.654ZM554.56 503.654C554.56 501.382 553.235 499.882 551.247 499.882C549.259 499.882 547.948 501.382 547.948 503.654C547.948 505.926 549.259 507.44 551.247 507.44C553.235 507.44 554.56 505.912 554.56 503.654ZM561.217 501.883V503.046H560.649C559.446 503.046 558.702 503.776 558.702 505.047V508.549H557.431V501.95H558.621L558.702 502.951C558.972 502.261 559.635 501.802 560.541 501.802C560.771 501.802 560.96 501.829 561.217 501.883ZM561.739 505.25C561.739 503.181 563.05 501.748 564.984 501.748C566.647 501.748 567.81 502.694 568.04 504.168H566.769C566.552 503.33 565.876 502.883 565.024 502.883C563.821 502.883 562.996 503.803 562.996 505.236C562.996 506.656 563.767 507.575 564.97 507.575C565.876 507.575 566.552 507.102 566.782 506.318H568.053C567.796 507.751 566.566 508.711 564.97 508.711C563.023 508.711 561.739 507.332 561.739 505.25ZM570.665 508.535H569.394V498.597H570.665V502.951C571.084 502.234 571.882 501.748 572.91 501.748C574.6 501.748 575.411 502.816 575.411 504.506V508.549H574.14V504.79C574.14 503.451 573.505 502.91 572.558 502.91C571.328 502.91 570.665 503.803 570.665 504.939V508.535ZM580.025 508.711C578.078 508.711 576.739 507.305 576.739 505.25C576.739 503.181 578.051 501.748 579.971 501.748C581.85 501.748 583.081 503.046 583.081 505.006V505.479L577.969 505.493C578.064 506.886 578.794 507.656 580.052 507.656C581.039 507.656 581.688 507.251 581.904 506.494H583.094C582.77 507.913 581.661 508.711 580.025 508.711ZM579.971 502.816C578.862 502.816 578.159 503.478 577.996 504.641H581.81C581.81 503.546 581.093 502.816 579.971 502.816ZM583.959 506.629H585.176C585.176 507.305 585.69 507.711 586.528 507.711C587.421 507.711 587.935 507.345 587.935 506.737C587.935 506.291 587.718 506.02 587.029 505.845L585.866 505.574C584.689 505.29 584.135 504.709 584.135 503.735C584.135 502.518 585.163 501.748 586.623 501.748C588.07 501.748 589.016 502.559 589.043 503.816H587.826C587.799 503.154 587.353 502.735 586.582 502.735C585.785 502.735 585.338 503.086 585.338 503.695C585.338 504.141 585.663 504.438 586.312 504.601L587.475 504.885C588.597 505.155 589.152 505.669 589.152 506.656C589.152 507.913 588.07 508.711 586.501 508.711C584.946 508.711 583.959 507.886 583.959 506.629ZM592.427 508.549H591.156V503.005H589.858V501.937H591.156V499.868H592.427V501.937H593.725V503.005H592.427V508.549ZM598.652 501.883V503.046H598.084C596.88 503.046 596.137 503.776 596.137 505.047V508.549H594.866V501.95H596.056L596.137 502.951C596.407 502.261 597.07 501.802 597.976 501.802C598.205 501.802 598.395 501.829 598.652 501.883ZM601.513 508.711C600.094 508.711 599.255 507.913 599.255 506.71C599.255 505.493 600.161 504.736 601.716 504.614L603.798 504.452V504.263C603.798 503.154 603.136 502.762 602.243 502.762C601.175 502.762 600.567 503.235 600.567 504.033H599.458C599.458 502.653 600.594 501.748 602.298 501.748C603.934 501.748 605.042 502.613 605.042 504.398V508.549H603.961L603.825 507.481C603.487 508.238 602.581 508.711 601.513 508.711ZM601.878 507.724C603.082 507.724 603.812 506.94 603.812 505.696V505.344L602.122 505.479C600.999 505.588 600.54 506.02 600.54 506.669C600.54 507.372 601.054 507.724 601.878 507.724ZM608.101 508.549H606.83V498.597H608.101V508.549Z" fill="#D0D4F5"/>
<path d="M555.497 542.837C550.376 542.837 547.059 539.28 547.059 533.775C547.059 528.318 550.497 524.689 555.641 524.689C559.799 524.689 562.9 527.116 563.501 530.89H560.256C559.655 528.847 557.9 527.645 555.569 527.645C552.324 527.645 550.28 530.001 550.28 533.751C550.28 537.477 552.348 539.881 555.569 539.881C557.948 539.881 559.775 538.631 560.352 536.684H563.549C562.876 540.385 559.655 542.837 555.497 542.837ZM567.342 528.294C566.333 528.294 565.539 527.501 565.539 526.515C565.539 525.53 566.333 524.761 567.342 524.761C568.304 524.761 569.097 525.53 569.097 526.515C569.097 527.501 568.304 528.294 567.342 528.294ZM565.876 542.549V530.674H568.809V542.549H565.876ZM574.771 542.549H571.838V530.674H574.555L574.795 532.212C575.54 531.011 576.983 530.313 578.593 530.313C581.574 530.313 583.112 532.164 583.112 535.241V542.549H580.18V535.938C580.18 533.943 579.194 532.982 577.68 532.982C575.877 532.982 574.771 534.232 574.771 536.155V542.549ZM591.306 542.861C587.773 542.861 585.297 540.289 585.297 536.611C585.297 532.886 587.724 530.313 591.21 530.313C594.768 530.313 597.027 532.693 597.027 536.395V537.284L588.085 537.309C588.301 539.4 589.407 540.458 591.354 540.458C592.965 540.458 594.022 539.833 594.359 538.703H597.075C596.57 541.299 594.407 542.861 591.306 542.861ZM591.234 532.717C589.503 532.717 588.446 533.655 588.157 535.434H594.119C594.119 533.799 592.989 532.717 591.234 532.717ZM602.307 542.549H599.374V530.674H602.067L602.307 532.068C602.908 531.083 604.11 530.313 605.817 530.313C607.619 530.313 608.869 531.203 609.494 532.573C610.095 531.203 611.489 530.313 613.292 530.313C616.177 530.313 617.763 532.044 617.763 534.785V542.549H614.855V535.554C614.855 533.847 613.941 532.958 612.547 532.958C611.129 532.958 610.047 533.871 610.047 535.818V542.549H607.115V535.53C607.115 533.871 606.225 532.982 604.831 532.982C603.437 532.982 602.307 533.895 602.307 535.818V542.549ZM624.176 542.861C621.652 542.861 620.114 541.395 620.114 539.159C620.114 536.972 621.7 535.602 624.512 535.385L628.07 535.121V534.857C628.07 533.246 627.109 532.597 625.618 532.597C623.887 532.597 622.926 533.318 622.926 534.568H620.426C620.426 531.996 622.541 530.313 625.762 530.313C628.96 530.313 630.931 532.044 630.931 535.337V542.549H628.359L628.142 540.794C627.637 542.02 626.027 542.861 624.176 542.861ZM625.137 540.65C626.94 540.65 628.094 539.568 628.094 537.741V537.116L625.618 537.309C623.791 537.477 623.094 538.078 623.094 539.039C623.094 540.121 623.815 540.65 625.137 540.65ZM637.686 542.549H634.753V533.126H632.469V530.674H634.753V526.972H637.686V530.674H639.993V533.126H637.686V542.549ZM643.283 528.294C642.273 528.294 641.48 527.501 641.48 526.515C641.48 525.53 642.273 524.761 643.283 524.761C644.244 524.761 645.038 525.53 645.038 526.515C645.038 527.501 644.244 528.294 643.283 528.294ZM641.817 542.549V530.674H644.749V542.549H641.817ZM647.082 536.587C647.082 532.91 649.51 530.313 653.019 530.313C656.265 530.313 658.476 532.116 658.789 534.977H655.856C655.519 533.631 654.534 532.934 653.14 532.934C651.265 532.934 650.015 534.352 650.015 536.587C650.015 538.823 651.168 540.217 653.043 540.217C654.51 540.217 655.543 539.496 655.856 538.198H658.813C658.452 540.962 656.144 542.861 653.043 542.861C649.438 542.861 647.082 540.361 647.082 536.587ZM666.897 529.881C666.897 526.804 669.445 524.665 673.147 524.665C676.705 524.665 678.965 526.636 679.061 529.809H675.984C675.912 528.294 674.83 527.405 673.099 527.405C671.2 527.405 669.974 528.318 669.974 529.785C669.974 531.035 670.647 531.732 672.114 532.068L674.878 532.669C677.883 533.318 679.349 534.857 679.349 537.477C679.349 540.746 676.801 542.861 672.931 542.861C669.181 542.861 666.729 540.866 666.657 537.717H669.734C669.758 539.208 670.96 540.097 672.931 540.097C674.974 540.097 676.272 539.208 676.272 537.741C676.272 536.563 675.671 535.866 674.229 535.554L671.441 534.929C668.46 534.28 666.897 532.573 666.897 529.881ZM689.753 530.674H692.685V542.549H689.969L689.753 540.962C689.032 542.092 687.493 542.861 685.907 542.861C683.166 542.861 681.556 541.01 681.556 538.102V530.674H684.488V537.068C684.488 539.328 685.378 540.241 687.012 540.241C688.863 540.241 689.753 539.159 689.753 536.9V530.674ZM694.566 538.943H697.355C697.379 539.977 698.148 540.626 699.494 540.626C700.864 540.626 701.609 540.073 701.609 539.208C701.609 538.607 701.297 538.174 700.239 537.934L698.1 537.429C695.96 536.948 694.927 535.938 694.927 534.039C694.927 531.708 696.898 530.313 699.638 530.313C702.306 530.313 704.109 531.852 704.133 534.16H701.345C701.321 533.15 700.648 532.501 699.518 532.501C698.364 532.501 697.691 533.03 697.691 533.919C697.691 534.592 698.22 535.025 699.23 535.265L701.369 535.77C703.364 536.227 704.374 537.14 704.374 538.967C704.374 541.371 702.33 542.861 699.398 542.861C696.441 542.861 694.566 541.275 694.566 538.943ZM706.607 548.054V530.674H709.323L709.515 532.477C710.236 531.107 711.799 530.313 713.602 530.313C716.943 530.313 719.155 532.741 719.155 536.467C719.155 540.169 717.135 542.861 713.602 542.861C711.823 542.861 710.284 542.164 709.539 540.962V548.054H706.607ZM709.563 536.611C709.563 538.751 710.885 540.217 712.905 540.217C714.972 540.217 716.198 538.727 716.198 536.611C716.198 534.496 714.972 532.982 712.905 532.982C710.885 532.982 709.563 534.472 709.563 536.611ZM726.802 542.861C723.268 542.861 720.792 540.289 720.792 536.611C720.792 532.886 723.22 530.313 726.706 530.313C730.263 530.313 732.523 532.693 732.523 536.395V537.284L723.581 537.309C723.797 539.4 724.903 540.458 726.85 540.458C728.461 540.458 729.518 539.833 729.855 538.703H732.571C732.066 541.299 729.903 542.861 726.802 542.861ZM726.73 532.717C724.999 532.717 723.941 533.655 723.653 535.434H729.614C729.614 533.799 728.485 532.717 726.73 532.717ZM737.803 542.549H734.87V530.674H737.586L737.827 532.212C738.572 531.011 740.014 530.313 741.625 530.313C744.606 530.313 746.144 532.164 746.144 535.241V542.549H743.211V535.938C743.211 533.943 742.226 532.982 740.711 532.982C738.909 532.982 737.803 534.232 737.803 536.155V542.549ZM747.971 538.943H750.76C750.784 539.977 751.553 540.626 752.899 540.626C754.269 540.626 755.014 540.073 755.014 539.208C755.014 538.607 754.702 538.174 753.644 537.934L751.505 537.429C749.365 536.948 748.332 535.938 748.332 534.039C748.332 531.708 750.303 530.313 753.043 530.313C755.711 530.313 757.514 531.852 757.538 534.16H754.75C754.726 533.15 754.053 532.501 752.923 532.501C751.769 532.501 751.096 533.03 751.096 533.919C751.096 534.592 751.625 535.025 752.634 535.265L754.774 535.77C756.769 536.227 757.779 537.14 757.779 538.967C757.779 541.371 755.735 542.861 752.803 542.861C749.846 542.861 747.971 541.275 747.971 538.943ZM765.324 542.861C761.79 542.861 759.314 540.289 759.314 536.611C759.314 532.886 761.742 530.313 765.228 530.313C768.785 530.313 771.045 532.693 771.045 536.395V537.284L762.103 537.309C762.319 539.4 763.425 540.458 765.372 540.458C766.983 540.458 768.04 539.833 768.377 538.703H771.093C770.588 541.299 768.425 542.861 765.324 542.861ZM765.252 532.717C763.521 532.717 762.463 533.655 762.175 535.434H768.136C768.136 533.799 767.007 532.717 765.252 532.717Z" fill="white"/>
</g>
<g filter="url(#filter1_i_1_177)">
<path d="M650 704C650 699.582 653.582 696 658 696H782C786.418 696 790 699.582 790 704V732C790 736.418 786.418 740 782 740H658C653.582 740 650 736.418 650 732V704Z" fill="url(#paint7_linear_1_177)"/>
<path d="M683.85 723H677.676V712.878H683.85V714.138H679.048V717.302H683.374V718.52H679.048V721.726H683.85V723ZM686.314 723H684.802L687.196 719.612L684.816 716.154H686.342L688.078 718.702L689.772 716.154H691.27L688.89 719.612L691.228 723H689.702L687.994 720.494L686.314 723ZM692.368 726.066V716.154H693.558L693.656 717.386C694.118 716.448 695.042 715.958 696.134 715.958C698.094 715.958 699.312 717.428 699.312 719.528C699.312 721.614 698.164 723.182 696.134 723.182C695.042 723.182 694.132 722.72 693.684 721.88V726.066H692.368ZM693.698 719.584C693.698 720.984 694.51 721.992 695.854 721.992C697.198 721.992 697.996 720.984 697.996 719.584C697.996 718.17 697.198 717.162 695.854 717.162C694.51 717.162 693.698 718.156 693.698 719.584ZM702.107 723H700.791V712.696H702.107V723ZM703.596 719.57C703.596 717.456 705.108 715.972 707.166 715.972C709.21 715.972 710.722 717.456 710.722 719.57C710.722 721.684 709.21 723.168 707.166 723.168C705.108 723.168 703.596 721.684 703.596 719.57ZM704.926 719.57C704.926 720.998 705.836 721.992 707.166 721.992C708.482 721.992 709.406 720.998 709.406 719.57C709.406 718.142 708.482 717.148 707.166 717.148C705.836 717.148 704.926 718.142 704.926 719.57ZM716.099 716.098V717.302H715.511C714.265 717.302 713.495 718.058 713.495 719.374V723H712.179V716.168H713.411L713.495 717.204C713.775 716.49 714.461 716.014 715.399 716.014C715.637 716.014 715.833 716.042 716.099 716.098ZM720.041 723.168C718.025 723.168 716.639 721.712 716.639 719.584C716.639 717.442 717.997 715.958 719.985 715.958C721.931 715.958 723.205 717.302 723.205 719.332V719.822L717.913 719.836C718.011 721.278 718.767 722.076 720.069 722.076C721.091 722.076 721.763 721.656 721.987 720.872H723.219C722.883 722.342 721.735 723.168 720.041 723.168ZM719.985 717.064C718.837 717.064 718.109 717.75 717.941 718.954H721.889C721.889 717.82 721.147 717.064 719.985 717.064ZM730.505 723.168C729.035 723.168 728.167 722.342 728.167 721.096C728.167 719.836 729.105 719.052 730.715 718.926L732.871 718.758V718.562C732.871 717.414 732.185 717.008 731.261 717.008C730.155 717.008 729.525 717.498 729.525 718.324H728.377C728.377 716.896 729.553 715.958 731.317 715.958C733.011 715.958 734.159 716.854 734.159 718.702V723H733.039L732.899 721.894C732.549 722.678 731.611 723.168 730.505 723.168ZM730.883 722.146C732.129 722.146 732.885 721.334 732.885 720.046V719.682L731.135 719.822C729.973 719.934 729.497 720.382 729.497 721.054C729.497 721.782 730.029 722.146 730.883 722.146ZM737.325 723H736.009V712.696H737.325V723ZM740.607 723H739.291V712.696H740.607V723ZM756.591 723.184L755.696 722.299L758.803 719.192H750.998V717.899H758.803L755.696 714.797L756.591 713.907L761.23 718.545L756.591 723.184Z" fill="white"/>
</g>
</g>
<path d="M72 0.5H1368C1407.49 0.5 1439.5 32.5116 1439.5 72V797.5H0.5V72C0.500004 32.5116 32.5116 0.5 72 0.5Z" stroke="#1C212C"/>
<defs>
<filter id="filter0_dddd_1_177" x="488.197" y="248.543" width="465.605" height="431.473" filterUnits="userSpaceOnUse" color-interpolation-filters="sRGB">
<feFlood flood-opacity="0" result="BackgroundImageFix"/>
<feColorMatrix in="SourceAlpha" type="matrix" values="0 0 0 0 0 0 0 0 0 0 0 0 0 0 0 0 0 0 127 0" result="hardAlpha"/>
<feOffset dy="5.25833"/>
<feGaussianBlur stdDeviation="5.63392"/>
<feColorMatrix type="matrix" values="0 0 0 0 0.333333 0 0 0 0 0.337255 0 0 0 0 0.345098 0 0 0 0.1 0"/>
<feBlend mode="normal" in2="BackgroundImageFix" result="effect1_dropShadow_1_177"/>
<feColorMatrix in="SourceAlpha" type="matrix" values="0 0 0 0 0 0 0 0 0 0 0 0 0 0 0 0 0 0 127 0" result="hardAlpha"/>
<feOffset dy="21.0333"/>
<feGaussianBlur stdDeviation="10.5167"/>
<feColorMatrix type="matrix" values="0 0 0 0 0.333333 0 0 0 0 0.337255 0 0 0 0 0.345098 0 0 0 0.09 0"/>
<feBlend mode="normal" in2="effect1_dropShadow_1_177" result="effect2_dropShadow_1_177"/>
<feColorMatrix in="SourceAlpha" type="matrix" values="0 0 0 0 0 0 0 0 0 0 0 0 0 0 0 0 0 0 127 0" result="hardAlpha"/>
<feOffset dy="47.325"/>
<feGaussianBlur stdDeviation="14.2726"/>
<feColorMatrix type="matrix" values="0 0 0 0 0.333333 0 0 0 0 0.337255 0 0 0 0 0.345098 0 0 0 0.05 0"/>
<feBlend mode="normal" in2="effect2_dropShadow_1_177" result="effect3_dropShadow_1_177"/>
<feColorMatrix in="SourceAlpha" type="matrix" values="0 0 0 0 0 0 0 0 0 0 0 0 0 0 0 0 0 0 127 0" result="hardAlpha"/>
<feOffset dy="84.1333"/>
<feGaussianBlur stdDeviation="16.9018"/>
<feColorMatrix type="matrix" values="0 0 0 0 0.333333 0 0 0 0 0.337255 0 0 0 0 0.345098 0 0 0 0.01 0"/>
<feBlend mode="normal" in2="effect3_dropShadow_1_177" result="effect4_dropShadow_1_177"/>
<feBlend mode="normal" in="SourceGraphic" in2="effect4_dropShadow_1_177" result="shape"/>
</filter>
<filter id="filter1_i_1_177" x="650" y="696" width="140" height="44" filterUnits="userSpaceOnUse" color-interpolation-filters="sRGB">
<feFlood flood-opacity="0" result="BackgroundImageFix"/>
<feBlend mode="normal" in="SourceGraphic" in2="BackgroundImageFix" result="shape"/>
<feColorMatrix in="SourceAlpha" type="matrix" values="0 0 0 0 0 0 0 0 0 0 0 0 0 0 0 0 0 0 127 0" result="hardAlpha"/>
<feOffset dy="1"/>
<feComposite in2="hardAlpha" operator="arithmetic" k2="-1" k3="1"/>
<feColorMatrix type="matrix" values="0 0 0 0 1 0 0 0 0 1 0 0 0 0 1 0 0 0 0.16 0"/>
<feBlend mode="normal" in2="shape" result="effect1_innerShadow_1_177"/>
</filter>
<linearGradient id="paint0_linear_1_177" x1="720" y1="0" x2="799.343" y2="817.801" gradientUnits="userSpaceOnUse">
<stop stop-color="#071223"/>
<stop offset="1" stop-color="#070B11"/>
</linearGradient>
<linearGradient id="paint1_linear_1_177" x1="365.253" y1="358.856" x2="186.278" y2="78.1195" gradientUnits="userSpaceOnUse">
<stop stop-color="#181A94"/>
<stop offset="0.43" stop-color="white" stop-opacity="0.57"/>
<stop offset="1" stop-color="#646590" stop-opacity="0"/>
</linearGradient>
<linearGradient id="paint2_linear_1_177" x1="1434.44" y1="451.699" x2="1294.2" y2="801.785" gradientUnits="userSpaceOnUse">
<stop stop-color="#315994"/>
<stop offset="0.43" stop-color="white" stop-opacity="0.57"/>
<stop offset="1" stop-color="#111361" stop-opacity="0"/>
</linearGradient>
<linearGradient id="paint3_linear_1_177" x1="336" y1="101" x2="1104" y2="101" gradientUnits="userSpaceOnUse">
<stop offset="0.01" stop-color="#F9FAFB"/>
<stop offset="0.205" stop-color="#E5E7EB"/>
<stop offset="0.5" stop-color="#C7D2FE"/>
<stop offset="0.755" stop-color="#E5E7EB"/>
<stop offset="1" stop-color="#F9FAFB"/>
</linearGradient>
<linearGradient id="paint4_linear_1_177" x1="1141.5" y1="370.228" x2="1141.5" y2="676.985" gradientUnits="userSpaceOnUse">
<stop stop-color="#535456"/>
<stop offset="1" stop-color="#555B73"/>
</linearGradient>
<linearGradient id="paint5_linear_1_177" x1="299.209" y1="369.182" x2="299.209" y2="677.033" gradientUnits="userSpaceOnUse">
<stop stop-color="#535456"/>
<stop offset="1" stop-color="#555B73"/>
</linearGradient>
<linearGradient id="paint6_linear_1_177" x1="721" y1="254.553" x2="721" y2="571.644" gradientUnits="userSpaceOnUse">
<stop stop-color="#6B6B7D"/>
<stop offset="1" stop-color="#7682AD"/>
</linearGradient>
<linearGradient id="paint7_linear_1_177" x1="719.671" y1="696" x2="719.671" y2="740" gradientUnits="userSpaceOnUse">
<stop stop-color="#E9407F"/>
<stop offset="1" stop-color="#B11550"/>
</linearGradient>
<clipPath id="clip0_1_177">
<path d="M0 72C0 32.2355 32.2355 0 72 0H1368C1407.76 0 1440 32.2355 1440 72V798H0V72Z" fill="white"/>
</clipPath>
<clipPath id="clip1_1_177">
<rect x="546.001" y="278.551" width="215" height="203" rx="19.9998" fill="white"/>
</clipPath>
</defs>
</svg>
