<svg width="20" height="20" viewBox="0 0 20 20" fill="none" xmlns="http://www.w3.org/2000/svg">
<path d="M14.1666 7.0835C14.857 7.0835 15.4166 6.52385 15.4166 5.8335C15.4166 5.14314 14.857 4.5835 14.1666 4.5835C13.4763 4.5835 12.9166 5.14314 12.9166 5.8335C12.9166 6.52385 13.4763 7.0835 14.1666 7.0835Z" fill="#575CD5"/>
<path d="M13.3333 2.5C15.6333 2.5 17.5 4.36667 17.5 6.66667V13.3333C17.5 15.6333 15.6333 17.5 13.3333 17.5H6.66667C4.36667 17.5 2.5 15.6333 2.5 13.3333V6.66667C2.5 4.36667 4.36667 2.5 6.66667 2.5H10H13.3333Z" stroke="#575CD5" stroke-width="1.66667" stroke-linecap="round" stroke-linejoin="round"/>
<path d="M9.99996 6.6665C11.8416 6.6665 13.3333 8.15817 13.3333 9.99984C13.3333 11.8415 11.8416 13.3332 9.99996 13.3332C8.15829 13.3332 6.66663 11.8415 6.66663 9.99984C6.66663 8.15817 8.15829 6.6665 9.99996 6.6665Z" stroke="#575CD5" stroke-width="1.66667" stroke-linecap="round" stroke-linejoin="round"/>
</svg>
