<svg width="215" height="204" viewBox="0 0 215 204" fill="none" xmlns="http://www.w3.org/2000/svg">
<g clip-path="url(#clip0_1_267)">
<rect x="0.000671387" y="0.551025" width="215" height="203" rx="19.9998" fill="#D0FAE6"/>
<path d="M52.9998 48.5502C52.9998 62.8719 58.6891 76.6071 68.8161 86.734C78.943 96.861 92.6782 102.55 107 102.55C121.322 102.55 135.057 96.861 145.184 86.734C155.311 76.6071 161 62.8719 161 48.5502L107 48.5502H52.9998Z" fill="#119184"/>
<path d="M161 156.55C161 142.229 155.31 128.494 145.184 118.367C135.057 108.24 121.321 102.55 107 102.55C92.678 102.55 78.9429 108.24 68.8159 118.367C58.6889 128.494 52.9996 142.229 52.9996 156.55L107 156.55H161Z" fill="#13B8A7"/>
</g>
<defs>
<clipPath id="clip0_1_267">
<rect x="0.000671387" y="0.551025" width="215" height="203" rx="19.9998" fill="white"/>
</clipPath>
</defs>
</svg>
