<svg width="20" height="20" viewBox="0 0 20 20" fill="none" xmlns="http://www.w3.org/2000/svg">
<path d="M17 2H3C2.73478 2 2.48043 2.10536 2.29289 2.29289C2.10536 2.48043 2 2.73478 2 3V17C2 17.2652 2.10536 17.5196 2.29289 17.7071C2.48043 17.8946 2.73478 18 3 18H17C17.2652 18 17.5196 17.8946 17.7071 17.7071C17.8946 17.5196 18 17.2652 18 17V3C18 2.73478 17.8946 2.48043 17.7071 2.29289C17.5196 2.10536 17.2652 2 17 2ZM15.292 5.791L14.434 6.614C14.3968 6.64114 14.3679 6.67798 14.3502 6.72048C14.3326 6.76299 14.327 6.80952 14.334 6.855V12.9C14.327 12.9455 14.3326 12.992 14.3502 13.0345C14.3679 13.077 14.3968 13.1139 14.434 13.141L15.272 13.964V14.145H11.057V13.964L11.925 13.121C12.01 13.036 12.01 13.011 12.01 12.88V7.993L9.6 14.124H9.271L6.461 7.994V12.1C6.44944 12.1854 6.45748 12.2722 6.48452 12.354C6.51155 12.4358 6.55685 12.5103 6.617 12.572L7.746 13.942V14.123H4.546V13.942L5.675 12.572C5.73466 12.5103 5.77896 12.4354 5.80433 12.3534C5.82969 12.2714 5.8354 12.1846 5.821 12.1V7.351C5.82727 7.28576 5.81804 7.21996 5.79406 7.15896C5.77008 7.09797 5.73203 7.0435 5.683 7L4.683 5.791V5.61H7.8L10.2 10.893L12.322 5.61H15.293L15.292 5.791Z" fill="#6366F1" fill-opacity="0.88"/>
</svg>
