<svg width="148" height="43" viewBox="0 0 148 43" fill="none" xmlns="http://www.w3.org/2000/svg">
<path d="M15.7346 34.3962L14.7315 30.3494H6.91459L5.66941 34.3962H0.792471C0.792471 34.3962 7.74471 11.8447 8.12518 10.6341C8.47106 9.42353 7.26047 8.97388 7.26047 8.97388H11.0306C14.2127 8.97388 16.9798 11.1184 17.8099 14.1621L23.1711 34.3962H15.7346ZM7.81388 27.4094H14.0398L11.3073 16.1336L7.81388 27.4094ZM35.7152 34.8459C29.8698 34.8459 25.5809 31.7675 25.5809 25.2995V13.4704C25.5809 11.9485 24.2319 11.6026 24.2319 10.7033V10.5649C24.2319 10.1845 24.5432 9.94235 25.0275 9.94235H31.9105C32.3948 9.94235 32.7061 10.1845 32.7061 10.5649V10.7033C32.7061 11.6026 31.3571 11.9485 31.3571 13.4704V25.1266C31.3571 29.5193 33.7783 31.5946 37.1334 31.5946C40.0042 31.5946 42.6675 29.7614 42.6675 25.1266V13.4704C42.6675 11.9485 41.2839 11.6026 41.2839 10.7033V10.5649C41.2839 10.1845 41.6298 9.94235 42.1141 9.94235H46.2646C46.7489 9.94235 47.0948 10.1845 47.0948 10.5649V10.7033C47.0948 11.6026 45.5383 11.9485 45.5383 13.4704V25.0574C45.5383 31.3179 41.6644 34.8459 35.7152 34.8459ZM50.4033 34.5C49.9191 34.5 49.5732 34.2579 49.5732 33.8774V33.7736C49.5732 32.8398 50.9568 32.4939 50.9568 30.972V13.4704C50.9568 11.9485 49.5732 11.6026 49.5732 10.6687V10.5649C49.5732 10.1845 49.9191 9.94235 50.4033 9.94235H58.6008C68.4584 9.94235 73.3353 14.9922 73.3353 21.9791C73.3353 29.2772 67.6975 34.5 59.7076 34.5H50.4033ZM60.3302 32.1826C64.2732 32.1826 67.2132 29.4847 67.2132 24.4348C67.2132 17.0329 63.6852 12.2598 58.6008 12.2598H58.0819C57.3556 12.2598 56.6984 12.6402 56.6984 13.8162V29.0351C56.6984 31.0412 57.7015 32.1826 59.4309 32.1826H60.3302ZM76.5464 34.5C76.0621 34.5 75.7508 34.2579 75.7508 33.8774V33.7736C75.7508 32.8398 77.1344 32.4939 77.1344 30.972V13.4704C77.1344 11.9485 75.7508 11.6026 75.7508 10.6687V10.5649C75.7508 10.1845 76.0621 9.94235 76.5464 9.94235H83.4294C83.9483 9.94235 84.2595 10.1845 84.2595 10.5649V10.6687C84.2595 11.6026 82.876 11.9485 82.876 13.4704V30.972C82.876 32.4939 84.2595 32.8398 84.2595 33.7736V33.8774C84.2595 34.2579 83.9483 34.5 83.4294 34.5H76.5464ZM97.7155 34.5C96.6778 34.5 96.0898 34.0158 95.6402 33.0127L87.2006 13.5049C86.4051 11.7755 85.2637 11.6026 85.2637 10.6687V10.5649C85.2637 10.1845 85.575 9.94235 86.0592 9.94235H94.4642C94.983 9.94235 95.2943 10.1845 95.2943 10.5649V10.6687C95.2943 11.9139 93.1152 11.7409 93.807 13.5049L99.4103 27.7899L104.841 13.4704C105.429 11.9485 103.284 11.568 103.284 10.6687V10.5649C103.284 10.1845 103.561 9.94235 104.08 9.94235H109.06C109.545 9.94235 109.856 10.1845 109.856 10.5649V10.6687C109.856 11.568 108.576 11.6718 107.85 13.4704L99.9291 32.9089C99.4795 34.0504 98.8223 34.5 97.7155 34.5ZM121.69 34.8459C114.876 34.8459 109.653 29.5539 109.653 22.3941C109.653 14.9231 114.91 9.59647 121.793 9.59647C128.78 9.59647 133.969 14.7847 133.969 22.1174C133.969 29.5193 128.642 34.8459 121.69 34.8459ZM123.592 32.3209C126.532 32.3209 128.331 30.2456 128.331 26.5447C128.331 20.0075 124.526 12.1214 119.96 12.1214C117.055 12.1214 115.291 14.2659 115.291 18.1052C115.291 24.8153 119.026 32.3209 123.592 32.3209Z" fill="#EDEEF1"/>
</svg>
