<svg width="20" height="20" viewBox="0 0 20 20" fill="none" xmlns="http://www.w3.org/2000/svg">
<path d="M5.71424 13.4288C4.69353 14.2291 3.52289 14.8168 2.27138 15.1574C2.13349 15.2074 2.01435 15.2987 1.93016 15.4189C1.84596 15.539 1.80079 15.6821 1.80079 15.8288C1.80079 15.9755 1.84596 16.1186 1.93016 16.2388C2.01435 16.3589 2.13349 16.4502 2.27138 16.5002C12.1571 20.5574 18.4428 14.286 17.4857 7.32881L19.0857 4.01453H17.2285C14.9142 1.17167 8.77138 1.31453 9.78567 7.37167C9.78567 7.37167 6.49996 7.95738 2.29995 3.82881C2.2028 3.73289 2.08019 3.66683 1.94665 3.63844C1.81311 3.61005 1.67423 3.62053 1.54646 3.66863C1.41869 3.71673 1.30738 3.80044 1.22571 3.90985C1.14405 4.01926 1.09545 4.14978 1.08567 4.28596C0.641572 6.11145 0.863817 8.03553 1.71239 9.71172C2.56096 11.3879 3.98009 12.7061 5.71424 13.4288Z" stroke="#575CD5" stroke-width="1.42857" stroke-linecap="round" stroke-linejoin="round"/>
</svg>
